<?xml version="1.0" encoding="utf-8"?>
<!-- Generator: Adobe Illustrator 26.0.2, SVG Export Plug-In . SVG Version: 6.00 Build 0)  -->
<svg version="1.1" id="Layer_1" xmlns="http://www.w3.org/2000/svg" xmlns:xlink="http://www.w3.org/1999/xlink" x="0px" y="0px"
	 viewBox="0 0 636.6 640.8" style="enable-background:new 0 0 636.6 640.8;" xml:space="preserve">
<style type="text/css">
	.st0{fill:none;}
	.st1{fill:#9C9DA1;}
	.st2{opacity:0.5;}
	.st3{fill:url(#SVGID_00000085227485758320255510000013458222797012520583_);}
	.st4{fill:#E4E6EB;}
	.st5{opacity:0.5;fill:url(#SVGID_00000062906093687387926250000017978484402182605702_);enable-background:new    ;}
	.st6{fill:#2E3433;}
	.st7{fill:none;stroke:#2E3433;stroke-width:0.7037;}
	.st8{fill:#96999E;stroke:#2E3433;stroke-width:1.5;stroke-linecap:round;stroke-linejoin:round;stroke-miterlimit:10;}
	.st9{fill:#FFFFFF;stroke:#2E3433;stroke-width:1.3783;stroke-linecap:round;stroke-linejoin:round;stroke-miterlimit:10;}
	.st10{fill:#DBE0E6;stroke:#2E3433;stroke-width:1.5;stroke-linecap:round;stroke-linejoin:round;stroke-miterlimit:10.0002;}
	.st11{fill:#DBE0E6;stroke:#2E3433;stroke-width:1.5;stroke-linecap:round;stroke-linejoin:round;stroke-miterlimit:10;}
	.st12{fill:#96999E;stroke:#2E3433;stroke-width:1.5;stroke-miterlimit:10;}
	.st13{fill:#96999E;}
	.st14{fill:#FFFFFF;}
	.st15{fill:#2E3433;stroke:#2E3433;stroke-width:1.5;stroke-miterlimit:10;}
	.st16{fill:#FFFFFF;stroke:#2E3433;stroke-width:1.5;stroke-linecap:round;stroke-linejoin:round;stroke-miterlimit:10;}
	.st17{fill:#BAC948;stroke:#2E3433;stroke-width:1.5;stroke-miterlimit:10;}
	.st18{fill:#96999E;stroke:#2E3433;stroke-width:1.3783;stroke-miterlimit:10;}
</style>
<pattern  x="-225.2" y="714.3" width="151.3" height="162.2" patternUnits="userSpaceOnUse" id="SVGID_1_" viewBox="10.5 -163.8 151.3 162.2" style="overflow:visible;">
	<g>
		<rect x="10.5" y="-163.8" class="st0" width="151.3" height="162.2"/>
		<g>
			<rect x="10.5" y="-163.8" class="st0" width="151.3" height="162.2"/>
			<g>
				<path class="st1" d="M77.9-164.7c0-1.4-2.6-2.5-5.8-2.5c-3.2,0-5.8,1.1-5.8,2.5s2.6,2.5,5.8,2.5
					C75.4-162.2,77.9-163.3,77.9-164.7z"/>
				<path class="st1" d="M59-164.7c0-1.4-2.6-2.5-5.8-2.5s-5.8,1.1-5.8,2.5s2.6,2.5,5.8,2.5C56.4-162.2,59-163.3,59-164.7z"/>
				<ellipse class="st1" cx="34.2" cy="-164.7" rx="5.8" ry="2.5"/>
				<ellipse class="st1" cx="15.3" cy="-164.7" rx="5.8" ry="2.5"/>
				<path class="st1" d="M87.4-154.5c0-1.4-2.6-2.5-5.8-2.5s-5.8,1.1-5.8,2.5s2.6,2.5,5.8,2.5S87.4-153.2,87.4-154.5z"/>
				<path class="st1" d="M68.5-154.5c0-1.4-2.6-2.5-5.8-2.5s-5.8,1.1-5.8,2.5s2.6,2.5,5.8,2.5S68.5-153.2,68.5-154.5z"/>
				<path class="st1" d="M49.5-154.5c0-1.4-2.6-2.5-5.8-2.5c-3.2,0-5.8,1.1-5.8,2.5s2.6,2.5,5.8,2.5
					C46.9-152.1,49.5-153.2,49.5-154.5z"/>
				<path class="st1" d="M30.5-154.5c0-1.4-2.6-2.5-5.8-2.5s-5.8,1.1-5.8,2.5s2.6,2.5,5.8,2.5S30.5-153.2,30.5-154.5z"/>
				<path class="st1" d="M11.5-154.5c0-1.4-2.6-2.5-5.8-2.5S0-155.9,0-154.5s2.6,2.5,5.8,2.5S11.5-153.2,11.5-154.5z"/>
				<path class="st1" d="M77.9-144.4c0-1.4-2.6-2.5-5.8-2.5c-3.2,0-5.8,1.1-5.8,2.5s2.6,2.5,5.8,2.5C75.4-141.9,77.9-143,77.9-144.4
					z"/>
				<path class="st1" d="M59-144.4c0-1.4-2.6-2.5-5.8-2.5s-5.8,1.1-5.8,2.5s2.6,2.5,5.8,2.5C56.4-141.9,59-143,59-144.4z"/>
				<path class="st1" d="M40-144.4c0-1.4-2.6-2.5-5.8-2.5s-5.8,1.1-5.8,2.5s2.6,2.5,5.8,2.5S40-143,40-144.4z"/>
				<path class="st1" d="M21-144.4c0-1.4-2.6-2.5-5.8-2.5s-5.8,1.1-5.8,2.5s2.6,2.5,5.8,2.5S21-143,21-144.4z"/>
			</g>
			<g>
				<path class="st1" d="M172.3-164.7c0-1.4-2.6-2.5-5.8-2.5s-5.8,1.1-5.8,2.5s2.6,2.5,5.8,2.5C169.8-162.2,172.3-163.3,172.3-164.7
					z"/>
				<path class="st1" d="M153.4-164.7c0-1.4-2.6-2.5-5.8-2.5s-5.8,1.1-5.8,2.5s2.6,2.5,5.8,2.5C150.8-162.2,153.4-163.3,153.4-164.7
					z"/>
				<path class="st1" d="M134.4-164.7c0-1.4-2.6-2.5-5.8-2.5s-5.8,1.1-5.8,2.5s2.6,2.5,5.8,2.5C131.8-162.2,134.4-163.3,134.4-164.7
					z"/>
				<ellipse class="st1" cx="109.6" cy="-164.7" rx="5.8" ry="2.5"/>
				<path class="st1" d="M96.4-164.7c0-1.4-2.6-2.5-5.8-2.5s-5.8,1.1-5.8,2.5s2.6,2.5,5.8,2.5S96.4-163.3,96.4-164.7z"/>
				<path class="st1" d="M162.9-154.5c0-1.4-2.6-2.5-5.8-2.5s-5.8,1.1-5.8,2.5s2.6,2.5,5.8,2.5C160.3-152.1,162.9-153.2,162.9-154.5
					z"/>
				<path class="st1" d="M143.9-154.5c0-1.4-2.6-2.5-5.8-2.5s-5.8,1.1-5.8,2.5s2.6,2.5,5.8,2.5S143.9-153.2,143.9-154.5z"/>
				<path class="st1" d="M124.9-154.5c0-1.4-2.6-2.5-5.8-2.5c-3.2,0-5.8,1.1-5.8,2.5s2.6,2.5,5.8,2.5S124.9-153.2,124.9-154.5z"/>
				<path class="st1" d="M105.9-154.5c0-1.4-2.6-2.5-5.8-2.5c-3.2,0-5.8,1.1-5.8,2.5s2.6,2.5,5.8,2.5
					C103.3-152.1,105.9-153.2,105.9-154.5z"/>
				<path class="st1" d="M172.3-144.4c0-1.4-2.6-2.5-5.8-2.5s-5.8,1.1-5.8,2.5s2.6,2.5,5.8,2.5C169.8-141.9,172.3-143,172.3-144.4z"
					/>
				<path class="st1" d="M153.4-144.4c0-1.4-2.6-2.5-5.8-2.5s-5.8,1.1-5.8,2.5s2.6,2.5,5.8,2.5C150.8-141.9,153.4-143,153.4-144.4z"
					/>
				<path class="st1" d="M134.4-144.4c0-1.4-2.6-2.5-5.8-2.5s-5.8,1.1-5.8,2.5s2.6,2.5,5.8,2.5C131.8-141.9,134.4-143,134.4-144.4z"
					/>
				<path class="st1" d="M115.4-144.4c0-1.4-2.6-2.5-5.8-2.5c-3.2,0-5.8,1.1-5.8,2.5s2.6,2.5,5.8,2.5
					C112.8-141.9,115.4-143,115.4-144.4z"/>
				<path class="st1" d="M96.4-144.4c0-1.4-2.6-2.5-5.8-2.5s-5.8,1.1-5.8,2.5s2.6,2.5,5.8,2.5S96.4-143,96.4-144.4z"/>
			</g>
			<g>
				<path class="st1" d="M11.8-134.3c0-1.4-2.6-2.5-5.8-2.5s-5.8,1.1-5.8,2.5c0,1.4,2.6,2.5,5.8,2.5S11.8-132.9,11.8-134.3z"/>
				<path class="st1" d="M11.8-114c0-1.4-2.6-2.5-5.8-2.5s-5.8,1.1-5.8,2.5s2.6,2.5,5.8,2.5S11.8-112.6,11.8-114z"/>
				<path class="st1" d="M11.8-93.7c0-1.4-2.6-2.5-5.8-2.5s-5.8,1.1-5.8,2.5s2.6,2.5,5.8,2.5S11.8-92.3,11.8-93.7z"/>
				<path class="st1" d="M11.8-73.4c0-1.4-2.6-2.5-5.8-2.5s-5.8,1.1-5.8,2.5S2.8-71,6-71C9.2-71,11.8-72.1,11.8-73.4z"/>
			</g>
			<g>
				<path class="st1" d="M163.1-134.3c0-1.4-2.6-2.5-5.8-2.5s-5.8,1.1-5.8,2.5c0,1.4,2.6,2.5,5.8,2.5S163.1-132.9,163.1-134.3z"/>
				<path class="st1" d="M144.1-134.3c0-1.4-2.6-2.5-5.8-2.5s-5.8,1.1-5.8,2.5c0,1.4,2.6,2.5,5.8,2.5S144.1-132.9,144.1-134.3z"/>
				<path class="st1" d="M125.1-134.3c0-1.4-2.6-2.5-5.8-2.5c-3.2,0-5.8,1.1-5.8,2.5c0,1.4,2.6,2.5,5.8,2.5S125.1-132.9,125.1-134.3
					z"/>
				<path class="st1" d="M106.2-134.3c0-1.4-2.6-2.5-5.8-2.5c-3.2,0-5.8,1.1-5.8,2.5c0,1.4,2.6,2.5,5.8,2.5
					C103.6-131.8,106.2-132.9,106.2-134.3z"/>
				<path class="st1" d="M87.2-134.3c0-1.4-2.6-2.5-5.8-2.5s-5.8,1.1-5.8,2.5c0,1.4,2.6,2.5,5.8,2.5S87.2-132.9,87.2-134.3z"/>
				<path class="st1" d="M68.2-134.3c0-1.4-2.6-2.5-5.8-2.5s-5.8,1.1-5.8,2.5c0,1.4,2.6,2.5,5.8,2.5S68.2-132.9,68.2-134.3z"/>
				<path class="st1" d="M49.2-134.3c0-1.4-2.6-2.5-5.8-2.5s-5.8,1.1-5.8,2.5c0,1.4,2.6,2.5,5.8,2.5S49.2-132.9,49.2-134.3z"/>
				<path class="st1" d="M30.3-134.3c0-1.4-2.6-2.5-5.8-2.5s-5.8,1.1-5.8,2.5c0,1.4,2.6,2.5,5.8,2.5S30.3-132.9,30.3-134.3z"/>
				<path class="st1" d="M153.6-124.1c0-1.4-2.6-2.5-5.8-2.5s-5.8,1.1-5.8,2.5s2.6,2.5,5.8,2.5C151-121.7,153.6-122.8,153.6-124.1z"
					/>
				<path class="st1" d="M134.6-124.1c0-1.4-2.6-2.5-5.8-2.5s-5.8,1.1-5.8,2.5s2.6,2.5,5.8,2.5C132-121.7,134.6-122.8,134.6-124.1z"
					/>
				<path class="st1" d="M115.7-124.1c0-1.4-2.6-2.5-5.8-2.5c-3.2,0-5.8,1.1-5.8,2.5s2.6,2.5,5.8,2.5
					C113.1-121.7,115.7-122.8,115.7-124.1z"/>
				<path class="st1" d="M96.7-124.1c0-1.4-2.6-2.5-5.8-2.5c-3.2,0-5.8,1.1-5.8,2.5s2.6,2.5,5.8,2.5
					C94.1-121.7,96.7-122.8,96.7-124.1z"/>
				<path class="st1" d="M77.7-124.1c0-1.4-2.6-2.5-5.8-2.5c-3.2,0-5.8,1.1-5.8,2.5s2.6,2.5,5.8,2.5
					C75.1-121.7,77.7-122.8,77.7-124.1z"/>
				<path class="st1" d="M58.7-124.1c0-1.4-2.6-2.5-5.8-2.5c-3.2,0-5.8,1.1-5.8,2.5s2.6,2.5,5.8,2.5
					C56.2-121.7,58.7-122.8,58.7-124.1z"/>
				<path class="st1" d="M39.8-124.1c0-1.4-2.6-2.5-5.8-2.5s-5.8,1.1-5.8,2.5s2.6,2.5,5.8,2.5C37.2-121.7,39.8-122.8,39.8-124.1z"/>
				<path class="st1" d="M20.8-124.1c0-1.4-2.6-2.5-5.8-2.5s-5.8,1.1-5.8,2.5s2.6,2.5,5.8,2.5S20.8-122.8,20.8-124.1z"/>
				<path class="st1" d="M163.1-114c0-1.4-2.6-2.5-5.8-2.5s-5.8,1.1-5.8,2.5s2.6,2.5,5.8,2.5S163.1-112.6,163.1-114z"/>
				<path class="st1" d="M144.1-114c0-1.4-2.6-2.5-5.8-2.5s-5.8,1.1-5.8,2.5s2.6,2.5,5.8,2.5S144.1-112.6,144.1-114z"/>
				<path class="st1" d="M125.1-114c0-1.4-2.6-2.5-5.8-2.5c-3.2,0-5.8,1.1-5.8,2.5s2.6,2.5,5.8,2.5S125.1-112.6,125.1-114z"/>
				<path class="st1" d="M106.2-114c0-1.4-2.6-2.5-5.8-2.5c-3.2,0-5.8,1.1-5.8,2.5s2.6,2.5,5.8,2.5
					C103.6-111.5,106.2-112.6,106.2-114z"/>
				<path class="st1" d="M87.2-114c0-1.4-2.6-2.5-5.8-2.5s-5.8,1.1-5.8,2.5s2.6,2.5,5.8,2.5S87.2-112.6,87.2-114z"/>
				<path class="st1" d="M68.2-114c0-1.4-2.6-2.5-5.8-2.5s-5.8,1.1-5.8,2.5s2.6,2.5,5.8,2.5S68.2-112.6,68.2-114z"/>
				<path class="st1" d="M49.2-114c0-1.4-2.6-2.5-5.8-2.5s-5.8,1.1-5.8,2.5s2.6,2.5,5.8,2.5S49.2-112.6,49.2-114z"/>
				<path class="st1" d="M30.3-114c0-1.4-2.6-2.5-5.8-2.5s-5.8,1.1-5.8,2.5s2.6,2.5,5.8,2.5S30.3-112.6,30.3-114z"/>
				<path class="st1" d="M157.3-103.9c0-1.4-2.6-2.5-5.8-2.5s-5.8,1.1-5.8,2.5s2.6,2.5,5.8,2.5C154.7-101.4,157.3-102.5,157.3-103.9
					z"/>
				<path class="st1" d="M138.3-103.9c0-1.4-2.6-2.5-5.8-2.5s-5.8,1.1-5.8,2.5s2.6,2.5,5.8,2.5C135.8-101.4,138.3-102.5,138.3-103.9
					z"/>
				<path class="st1" d="M119.4-103.9c0-1.4-2.6-2.5-5.8-2.5s-5.8,1.1-5.8,2.5s2.6,2.5,5.8,2.5S119.4-102.5,119.4-103.9z"/>
				<path class="st1" d="M100.4-103.9c0-1.4-2.6-2.5-5.8-2.5s-5.8,1.1-5.8,2.5s2.6,2.5,5.8,2.5S100.4-102.5,100.4-103.9z"/>
				<path class="st1" d="M81.4-103.9c0-1.4-2.6-2.5-5.8-2.5s-5.8,1.1-5.8,2.5s2.6,2.5,5.8,2.5S81.4-102.5,81.4-103.9z"/>
				<path class="st1" d="M62.5-103.9c0-1.4-2.6-2.5-5.8-2.5c-3.2,0-5.8,1.1-5.8,2.5s2.6,2.5,5.8,2.5
					C59.9-101.4,62.5-102.5,62.5-103.9z"/>
				<path class="st1" d="M43.5-103.9c0-1.4-2.6-2.5-5.8-2.5c-3.2,0-5.8,1.1-5.8,2.5s2.6,2.5,5.8,2.5
					C40.9-101.4,43.5-102.5,43.5-103.9z"/>
				<path class="st1" d="M24.5-103.9c0-1.4-2.6-2.5-5.8-2.5s-5.8,1.1-5.8,2.5s2.6,2.5,5.8,2.5C21.9-101.4,24.5-102.5,24.5-103.9z"/>
				<path class="st1" d="M163.1-93.7c0-1.4-2.6-2.5-5.8-2.5s-5.8,1.1-5.8,2.5s2.6,2.5,5.8,2.5S163.1-92.3,163.1-93.7z"/>
				<path class="st1" d="M144.1-93.7c0-1.4-2.6-2.5-5.8-2.5s-5.8,1.1-5.8,2.5s2.6,2.5,5.8,2.5S144.1-92.3,144.1-93.7z"/>
				<path class="st1" d="M125.1-93.7c0-1.4-2.6-2.5-5.8-2.5c-3.2,0-5.8,1.1-5.8,2.5s2.6,2.5,5.8,2.5S125.1-92.3,125.1-93.7z"/>
				<path class="st1" d="M106.2-93.7c0-1.4-2.6-2.5-5.8-2.5c-3.2,0-5.8,1.1-5.8,2.5s2.6,2.5,5.8,2.5
					C103.6-91.2,106.2-92.3,106.2-93.7z"/>
				<path class="st1" d="M87.2-93.7c0-1.4-2.6-2.5-5.8-2.5s-5.8,1.1-5.8,2.5s2.6,2.5,5.8,2.5S87.2-92.3,87.2-93.7z"/>
				<path class="st1" d="M68.2-93.7c0-1.4-2.6-2.5-5.8-2.5s-5.8,1.1-5.8,2.5s2.6,2.5,5.8,2.5S68.2-92.3,68.2-93.7z"/>
				<path class="st1" d="M49.2-93.7c0-1.4-2.6-2.5-5.8-2.5s-5.8,1.1-5.8,2.5s2.6,2.5,5.8,2.5S49.2-92.3,49.2-93.7z"/>
				<path class="st1" d="M30.3-93.7c0-1.4-2.6-2.5-5.8-2.5s-5.8,1.1-5.8,2.5s2.6,2.5,5.8,2.5S30.3-92.3,30.3-93.7z"/>
				<path class="st1" d="M153.6-83.6c0-1.4-2.6-2.5-5.8-2.5s-5.8,1.1-5.8,2.5s2.6,2.5,5.8,2.5S153.6-82.2,153.6-83.6z"/>
				<path class="st1" d="M134.6-83.6c0-1.4-2.6-2.5-5.8-2.5s-5.8,1.1-5.8,2.5s2.6,2.5,5.8,2.5C132-81.1,134.6-82.2,134.6-83.6z"/>
				<path class="st1" d="M115.7-83.6c0-1.4-2.6-2.5-5.8-2.5c-3.2,0-5.8,1.1-5.8,2.5s2.6,2.5,5.8,2.5S115.7-82.2,115.7-83.6z"/>
				<path class="st1" d="M96.7-83.6c0-1.4-2.6-2.5-5.8-2.5c-3.2,0-5.8,1.1-5.8,2.5s2.6,2.5,5.8,2.5S96.7-82.2,96.7-83.6z"/>
				<path class="st1" d="M77.7-83.6c0-1.4-2.6-2.5-5.8-2.5c-3.2,0-5.8,1.1-5.8,2.5s2.6,2.5,5.8,2.5C75.1-81.1,77.7-82.2,77.7-83.6z"
					/>
				<path class="st1" d="M58.7-83.6c0-1.4-2.6-2.5-5.8-2.5c-3.2,0-5.8,1.1-5.8,2.5s2.6,2.5,5.8,2.5S58.7-82.2,58.7-83.6z"/>
				<path class="st1" d="M39.8-83.6c0-1.4-2.6-2.5-5.8-2.5s-5.8,1.1-5.8,2.5s2.6,2.5,5.8,2.5S39.8-82.2,39.8-83.6z"/>
				<path class="st1" d="M20.8-83.6c0-1.4-2.6-2.5-5.8-2.5s-5.8,1.1-5.8,2.5s2.6,2.5,5.8,2.5S20.8-82.2,20.8-83.6z"/>
				<path class="st1" d="M163.1-73.4c0-1.4-2.6-2.5-5.8-2.5s-5.8,1.1-5.8,2.5s2.6,2.5,5.8,2.5S163.1-72.1,163.1-73.4z"/>
				<path class="st1" d="M144.1-73.4c0-1.4-2.6-2.5-5.8-2.5s-5.8,1.1-5.8,2.5s2.6,2.5,5.8,2.5C141.5-71,144.1-72.1,144.1-73.4z"/>
				<path class="st1" d="M125.1-73.4c0-1.4-2.6-2.5-5.8-2.5c-3.2,0-5.8,1.1-5.8,2.5s2.6,2.5,5.8,2.5C122.6-71,125.1-72.1,125.1-73.4
					z"/>
				<path class="st1" d="M106.2-73.4c0-1.4-2.6-2.5-5.8-2.5c-3.2,0-5.8,1.1-5.8,2.5s2.6,2.5,5.8,2.5C103.6-71,106.2-72.1,106.2-73.4
					z"/>
				<path class="st1" d="M87.2-73.4c0-1.4-2.6-2.5-5.8-2.5s-5.8,1.1-5.8,2.5s2.6,2.5,5.8,2.5S87.2-72.1,87.2-73.4z"/>
				<path class="st1" d="M68.2-73.4c0-1.4-2.6-2.5-5.8-2.5s-5.8,1.1-5.8,2.5s2.6,2.5,5.8,2.5C65.6-71,68.2-72.1,68.2-73.4z"/>
				<path class="st1" d="M49.2-73.4c0-1.4-2.6-2.5-5.8-2.5s-5.8,1.1-5.8,2.5s2.6,2.5,5.8,2.5S49.2-72.1,49.2-73.4z"/>
				<path class="st1" d="M30.3-73.4c0-1.4-2.6-2.5-5.8-2.5s-5.8,1.1-5.8,2.5s2.6,2.5,5.8,2.5C27.7-71,30.3-72.1,30.3-73.4z"/>
				<path class="st1" d="M153.6-63.3c0-1.4-2.6-2.5-5.8-2.5s-5.8,1.1-5.8,2.5s2.6,2.5,5.8,2.5S153.6-61.9,153.6-63.3z"/>
				<path class="st1" d="M134.6-63.3c0-1.4-2.6-2.5-5.8-2.5s-5.8,1.1-5.8,2.5s2.6,2.5,5.8,2.5C132-60.8,134.6-61.9,134.6-63.3z"/>
				<path class="st1" d="M115.7-63.3c0-1.4-2.6-2.5-5.8-2.5c-3.2,0-5.8,1.1-5.8,2.5s2.6,2.5,5.8,2.5S115.7-61.9,115.7-63.3z"/>
				<path class="st1" d="M96.7-63.3c0-1.4-2.6-2.5-5.8-2.5c-3.2,0-5.8,1.1-5.8,2.5s2.6,2.5,5.8,2.5S96.7-61.9,96.7-63.3z"/>
				<path class="st1" d="M77.7-63.3c0-1.4-2.6-2.5-5.8-2.5c-3.2,0-5.8,1.1-5.8,2.5s2.6,2.5,5.8,2.5C75.1-60.8,77.7-61.9,77.7-63.3z"
					/>
				<path class="st1" d="M58.7-63.3c0-1.4-2.6-2.5-5.8-2.5c-3.2,0-5.8,1.1-5.8,2.5s2.6,2.5,5.8,2.5S58.7-61.9,58.7-63.3z"/>
				<path class="st1" d="M39.8-63.3c0-1.4-2.6-2.5-5.8-2.5s-5.8,1.1-5.8,2.5s2.6,2.5,5.8,2.5S39.8-61.9,39.8-63.3z"/>
				<path class="st1" d="M20.8-63.3c0-1.4-2.6-2.5-5.8-2.5s-5.8,1.1-5.8,2.5s2.6,2.5,5.8,2.5S20.8-61.9,20.8-63.3z"/>
			</g>
			<g>
				<path class="st1" d="M172.1-124.1c0-1.4-2.6-2.5-5.8-2.5s-5.8,1.1-5.8,2.5s2.6,2.5,5.8,2.5C169.5-121.7,172.1-122.8,172.1-124.1
					z"/>
				<path class="st1" d="M172.1-83.6c0-1.4-2.6-2.5-5.8-2.5s-5.8,1.1-5.8,2.5s2.6,2.5,5.8,2.5S172.1-82.2,172.1-83.6z"/>
				<path class="st1" d="M172.1-63.3c0-1.4-2.6-2.5-5.8-2.5s-5.8,1.1-5.8,2.5s2.6,2.5,5.8,2.5S172.1-61.9,172.1-63.3z"/>
			</g>
			<g>
				<path class="st1" d="M87.4-53.2c0-1.4-2.6-2.5-5.8-2.5s-5.8,1.1-5.8,2.5s2.6,2.5,5.8,2.5S87.4-51.8,87.4-53.2z"/>
				<path class="st1" d="M68.5-53.2c0-1.4-2.6-2.5-5.8-2.5s-5.8,1.1-5.8,2.5s2.6,2.5,5.8,2.5S68.5-51.8,68.5-53.2z"/>
				<path class="st1" d="M49.5-53.2c0-1.4-2.6-2.5-5.8-2.5c-3.2,0-5.8,1.1-5.8,2.5s2.6,2.5,5.8,2.5C46.9-50.7,49.5-51.8,49.5-53.2z"
					/>
				<path class="st1" d="M30.5-53.2c0-1.4-2.6-2.5-5.8-2.5S19-54.5,19-53.2s2.6,2.5,5.8,2.5S30.5-51.8,30.5-53.2z"/>
				<path class="st1" d="M11.5-53.2c0-1.4-2.6-2.5-5.8-2.5S0-54.5,0-53.2s2.6,2.5,5.8,2.5S11.5-51.8,11.5-53.2z"/>
				<path class="st1" d="M77.9-43c0-1.4-2.6-2.5-5.8-2.5c-3.2,0-5.8,1.1-5.8,2.5s2.6,2.5,5.8,2.5C75.4-40.6,77.9-41.7,77.9-43z"/>
				<path class="st1" d="M59-43c0-1.4-2.6-2.5-5.8-2.5s-5.8,1.1-5.8,2.5s2.6,2.5,5.8,2.5S59-41.7,59-43z"/>
				<path class="st1" d="M40-43c0-1.4-2.6-2.5-5.8-2.5s-5.8,1.1-5.8,2.5s2.6,2.5,5.8,2.5S40-41.7,40-43z"/>
				<path class="st1" d="M21-43c0-1.4-2.6-2.5-5.8-2.5S9.5-44.4,9.5-43s2.6,2.5,5.8,2.5S21-41.7,21-43z"/>
				<path class="st1" d="M87.4-32.9c0-1.4-2.6-2.5-5.8-2.5s-5.8,1.1-5.8,2.5s2.6,2.5,5.8,2.5S87.4-31.5,87.4-32.9z"/>
				<path class="st1" d="M68.5-32.9c0-1.4-2.6-2.5-5.8-2.5s-5.8,1.1-5.8,2.5s2.6,2.5,5.8,2.5C65.9-30.4,68.5-31.5,68.5-32.9z"/>
				<path class="st1" d="M49.5-32.9c0-1.4-2.6-2.5-5.8-2.5c-3.2,0-5.8,1.1-5.8,2.5s2.6,2.5,5.8,2.5C46.9-30.4,49.5-31.5,49.5-32.9z"
					/>
				<path class="st1" d="M30.5-32.9c0-1.4-2.6-2.5-5.8-2.5S19-34.3,19-32.9s2.6,2.5,5.8,2.5C27.9-30.4,30.5-31.5,30.5-32.9z"/>
				<path class="st1" d="M11.5-32.9c0-1.4-2.6-2.5-5.8-2.5S0-34.3,0-32.9s2.6,2.5,5.8,2.5C9-30.4,11.5-31.5,11.5-32.9z"/>
				<path class="st1" d="M81.7-22.8c0-1.4-2.6-2.5-5.8-2.5c-3.2,0-5.8,1.1-5.8,2.5s2.6,2.5,5.8,2.5S81.7-21.4,81.7-22.8z"/>
				<path class="st1" d="M62.7-22.8c0-1.4-2.6-2.5-5.8-2.5c-3.2,0-5.8,1.1-5.8,2.5s2.6,2.5,5.8,2.5S62.7-21.4,62.7-22.8z"/>
				<path class="st1" d="M43.7-22.8c0-1.4-2.6-2.5-5.8-2.5s-5.8,1.1-5.8,2.5s2.6,2.5,5.8,2.5C41.1-20.3,43.7-21.4,43.7-22.8z"/>
				<path class="st1" d="M24.7-22.8c0-1.4-2.6-2.5-5.8-2.5s-5.8,1.1-5.8,2.5s2.6,2.5,5.8,2.5S24.7-21.4,24.7-22.8z"/>
				<path class="st1" d="M87.4-12.6c0-1.4-2.6-2.5-5.8-2.5s-5.8,1.1-5.8,2.5s2.6,2.5,5.8,2.5S87.4-11.2,87.4-12.6z"/>
				<path class="st1" d="M68.5-12.6c0-1.4-2.6-2.5-5.8-2.5s-5.8,1.1-5.8,2.5s2.6,2.5,5.8,2.5S68.5-11.2,68.5-12.6z"/>
				<path class="st1" d="M49.5-12.6c0-1.4-2.6-2.5-5.8-2.5c-3.2,0-5.8,1.1-5.8,2.5s2.6,2.5,5.8,2.5C46.9-10.1,49.5-11.2,49.5-12.6z"
					/>
				<path class="st1" d="M30.5-12.6c0-1.4-2.6-2.5-5.8-2.5S19-14,19-12.6s2.6,2.5,5.8,2.5S30.5-11.2,30.5-12.6z"/>
				<path class="st1" d="M11.5-12.6c0-1.4-2.6-2.5-5.8-2.5S0-14,0-12.6s2.6,2.5,5.8,2.5S11.5-11.2,11.5-12.6z"/>
				<path class="st1" d="M77.9-2.5c0-1.4-2.6-2.5-5.8-2.5c-3.2,0-5.8,1.1-5.8,2.5S69,0,72.2,0C75.4,0,77.9-1.1,77.9-2.5z"/>
				<path class="st1" d="M59-2.5c0-1.4-2.6-2.5-5.8-2.5s-5.8,1.1-5.8,2.5S50,0,53.2,0S59-1.1,59-2.5z"/>
				<path class="st1" d="M40-2.5c0-1.4-2.6-2.5-5.8-2.5s-5.8,1.1-5.8,2.5S31,0,34.2,0S40-1.1,40-2.5z"/>
				<path class="st1" d="M21-2.5c0-1.4-2.6-2.5-5.8-2.5S9.5-3.8,9.5-2.5S12.1,0,15.3,0S21-1.1,21-2.5z"/>
			</g>
			<g>
				<path class="st1" d="M162.9-53.2c0-1.4-2.6-2.5-5.8-2.5s-5.8,1.1-5.8,2.5s2.6,2.5,5.8,2.5C160.3-50.7,162.9-51.8,162.9-53.2z"/>
				<path class="st1" d="M143.9-53.2c0-1.4-2.6-2.5-5.8-2.5s-5.8,1.1-5.8,2.5s2.6,2.5,5.8,2.5S143.9-51.8,143.9-53.2z"/>
				<path class="st1" d="M124.9-53.2c0-1.4-2.6-2.5-5.8-2.5c-3.2,0-5.8,1.1-5.8,2.5s2.6,2.5,5.8,2.5S124.9-51.8,124.9-53.2z"/>
				<path class="st1" d="M105.9-53.2c0-1.4-2.6-2.5-5.8-2.5c-3.2,0-5.8,1.1-5.8,2.5s2.6,2.5,5.8,2.5
					C103.3-50.7,105.9-51.8,105.9-53.2z"/>
				<path class="st1" d="M172.3-43c0-1.4-2.6-2.5-5.8-2.5s-5.8,1.1-5.8,2.5s2.6,2.5,5.8,2.5S172.3-41.7,172.3-43z"/>
				<path class="st1" d="M153.4-43c0-1.4-2.6-2.5-5.8-2.5s-5.8,1.1-5.8,2.5s2.6,2.5,5.8,2.5S153.4-41.7,153.4-43z"/>
				<path class="st1" d="M134.4-43c0-1.4-2.6-2.5-5.8-2.5s-5.8,1.1-5.8,2.5s2.6,2.5,5.8,2.5C131.8-40.6,134.4-41.7,134.4-43z"/>
				<path class="st1" d="M115.4-43c0-1.4-2.6-2.5-5.8-2.5c-3.2,0-5.8,1.1-5.8,2.5s2.6,2.5,5.8,2.5S115.4-41.7,115.4-43z"/>
				<path class="st1" d="M96.4-43c0-1.4-2.6-2.5-5.8-2.5s-5.8,1.1-5.8,2.5s2.6,2.5,5.8,2.5S96.4-41.7,96.4-43z"/>
				<path class="st1" d="M162.9-32.9c0-1.4-2.6-2.5-5.8-2.5s-5.8,1.1-5.8,2.5s2.6,2.5,5.8,2.5C160.3-30.4,162.9-31.5,162.9-32.9z"/>
				<path class="st1" d="M143.9-32.9c0-1.4-2.6-2.5-5.8-2.5s-5.8,1.1-5.8,2.5s2.6,2.5,5.8,2.5S143.9-31.5,143.9-32.9z"/>
				<path class="st1" d="M124.9-32.9c0-1.4-2.6-2.5-5.8-2.5c-3.2,0-5.8,1.1-5.8,2.5s2.6,2.5,5.8,2.5
					C122.3-30.4,124.9-31.5,124.9-32.9z"/>
				<path class="st1" d="M105.9-32.9c0-1.4-2.6-2.5-5.8-2.5c-3.2,0-5.8,1.1-5.8,2.5s2.6,2.5,5.8,2.5
					C103.3-30.4,105.9-31.5,105.9-32.9z"/>
				<path class="st1" d="M157.1-22.8c0-1.4-2.6-2.5-5.8-2.5s-5.8,1.1-5.8,2.5s2.6,2.5,5.8,2.5C154.5-20.3,157.1-21.4,157.1-22.8z"/>
				<path class="st1" d="M138.1-22.8c0-1.4-2.6-2.5-5.8-2.5s-5.8,1.1-5.8,2.5s2.6,2.5,5.8,2.5S138.1-21.4,138.1-22.8z"/>
				<path class="st1" d="M119.1-22.8c0-1.4-2.6-2.5-5.8-2.5c-3.2,0-5.8,1.1-5.8,2.5s2.6,2.5,5.8,2.5
					C116.6-20.3,119.1-21.4,119.1-22.8z"/>
				<path class="st1" d="M100.2-22.8c0-1.4-2.6-2.5-5.8-2.5s-5.8,1.1-5.8,2.5s2.6,2.5,5.8,2.5S100.2-21.4,100.2-22.8z"/>
				<path class="st1" d="M162.9-12.6c0-1.4-2.6-2.5-5.8-2.5s-5.8,1.1-5.8,2.5s2.6,2.5,5.8,2.5C160.3-10.1,162.9-11.2,162.9-12.6z"/>
				<path class="st1" d="M143.9-12.6c0-1.4-2.6-2.5-5.8-2.5s-5.8,1.1-5.8,2.5s2.6,2.5,5.8,2.5S143.9-11.2,143.9-12.6z"/>
				<path class="st1" d="M124.9-12.6c0-1.4-2.6-2.5-5.8-2.5c-3.2,0-5.8,1.1-5.8,2.5s2.6,2.5,5.8,2.5S124.9-11.2,124.9-12.6z"/>
				<path class="st1" d="M105.9-12.6c0-1.4-2.6-2.5-5.8-2.5c-3.2,0-5.8,1.1-5.8,2.5s2.6,2.5,5.8,2.5
					C103.3-10.1,105.9-11.2,105.9-12.6z"/>
				<path class="st1" d="M172.3-2.5c0-1.4-2.6-2.5-5.8-2.5s-5.8,1.1-5.8,2.5s2.6,2.5,5.8,2.5S172.3-1.1,172.3-2.5z"/>
				<path class="st1" d="M153.4-2.5c0-1.4-2.6-2.5-5.8-2.5s-5.8,1.1-5.8,2.5s2.6,2.5,5.8,2.5S153.4-1.1,153.4-2.5z"/>
				<path class="st1" d="M134.4-2.5c0-1.4-2.6-2.5-5.8-2.5s-5.8,1.1-5.8,2.5s2.6,2.5,5.8,2.5C131.8,0,134.4-1.1,134.4-2.5z"/>
				<path class="st1" d="M115.4-2.5c0-1.4-2.6-2.5-5.8-2.5c-3.2,0-5.8,1.1-5.8,2.5s2.6,2.5,5.8,2.5S115.4-1.1,115.4-2.5z"/>
				<path class="st1" d="M96.4-2.5c0-1.4-2.6-2.5-5.8-2.5s-5.8,1.1-5.8,2.5S87.5,0,90.7,0S96.4-1.1,96.4-2.5z"/>
			</g>
		</g>
	</g>
</pattern>
<pattern  x="-225.2" y="714.3" width="151.3" height="162.2" patternUnits="userSpaceOnUse" id="SVGID_2_" viewBox="10.5 -163.8 151.3 162.2" style="overflow:visible;">
	<g>
		<rect x="10.5" y="-163.8" class="st0" width="151.3" height="162.2"/>
		<g>
			<rect x="10.5" y="-163.8" class="st0" width="151.3" height="162.2"/>
			<g>
				<path class="st1" d="M77.9-164.7c0-1.4-2.6-2.5-5.8-2.5c-3.2,0-5.8,1.1-5.8,2.5s2.6,2.5,5.8,2.5
					C75.4-162.2,77.9-163.3,77.9-164.7z"/>
				<path class="st1" d="M59-164.7c0-1.4-2.6-2.5-5.8-2.5s-5.8,1.1-5.8,2.5s2.6,2.5,5.8,2.5C56.4-162.2,59-163.3,59-164.7z"/>
				<ellipse class="st1" cx="34.2" cy="-164.7" rx="5.8" ry="2.5"/>
				<ellipse class="st1" cx="15.3" cy="-164.7" rx="5.8" ry="2.5"/>
				<path class="st1" d="M87.4-154.5c0-1.4-2.6-2.5-5.8-2.5s-5.8,1.1-5.8,2.5s2.6,2.5,5.8,2.5S87.4-153.2,87.4-154.5z"/>
				<path class="st1" d="M68.5-154.5c0-1.4-2.6-2.5-5.8-2.5s-5.8,1.1-5.8,2.5s2.6,2.5,5.8,2.5S68.5-153.2,68.5-154.5z"/>
				<path class="st1" d="M49.5-154.5c0-1.4-2.6-2.5-5.8-2.5c-3.2,0-5.8,1.1-5.8,2.5s2.6,2.5,5.8,2.5
					C46.9-152.1,49.5-153.2,49.5-154.5z"/>
				<path class="st1" d="M30.5-154.5c0-1.4-2.6-2.5-5.8-2.5s-5.8,1.1-5.8,2.5s2.6,2.5,5.8,2.5S30.5-153.2,30.5-154.5z"/>
				<path class="st1" d="M11.5-154.5c0-1.4-2.6-2.5-5.8-2.5S0-155.9,0-154.5s2.6,2.5,5.8,2.5S11.5-153.2,11.5-154.5z"/>
				<path class="st1" d="M77.9-144.4c0-1.4-2.6-2.5-5.8-2.5c-3.2,0-5.8,1.1-5.8,2.5s2.6,2.5,5.8,2.5C75.4-141.9,77.9-143,77.9-144.4
					z"/>
				<path class="st1" d="M59-144.4c0-1.4-2.6-2.5-5.8-2.5s-5.8,1.1-5.8,2.5s2.6,2.5,5.8,2.5C56.4-141.9,59-143,59-144.4z"/>
				<path class="st1" d="M40-144.4c0-1.4-2.6-2.5-5.8-2.5s-5.8,1.1-5.8,2.5s2.6,2.5,5.8,2.5S40-143,40-144.4z"/>
				<path class="st1" d="M21-144.4c0-1.4-2.6-2.5-5.8-2.5s-5.8,1.1-5.8,2.5s2.6,2.5,5.8,2.5S21-143,21-144.4z"/>
			</g>
			<g>
				<path class="st1" d="M172.3-164.7c0-1.4-2.6-2.5-5.8-2.5s-5.8,1.1-5.8,2.5s2.6,2.5,5.8,2.5C169.8-162.2,172.3-163.3,172.3-164.7
					z"/>
				<path class="st1" d="M153.4-164.7c0-1.4-2.6-2.5-5.8-2.5s-5.8,1.1-5.8,2.5s2.6,2.5,5.8,2.5C150.8-162.2,153.4-163.3,153.4-164.7
					z"/>
				<path class="st1" d="M134.4-164.7c0-1.4-2.6-2.5-5.8-2.5s-5.8,1.1-5.8,2.5s2.6,2.5,5.8,2.5C131.8-162.2,134.4-163.3,134.4-164.7
					z"/>
				<ellipse class="st1" cx="109.6" cy="-164.7" rx="5.8" ry="2.5"/>
				<path class="st1" d="M96.4-164.7c0-1.4-2.6-2.5-5.8-2.5s-5.8,1.1-5.8,2.5s2.6,2.5,5.8,2.5S96.4-163.3,96.4-164.7z"/>
				<path class="st1" d="M162.9-154.5c0-1.4-2.6-2.5-5.8-2.5s-5.8,1.1-5.8,2.5s2.6,2.5,5.8,2.5C160.3-152.1,162.9-153.2,162.9-154.5
					z"/>
				<path class="st1" d="M143.9-154.5c0-1.4-2.6-2.5-5.8-2.5s-5.8,1.1-5.8,2.5s2.6,2.5,5.8,2.5S143.9-153.2,143.9-154.5z"/>
				<path class="st1" d="M124.9-154.5c0-1.4-2.6-2.5-5.8-2.5c-3.2,0-5.8,1.1-5.8,2.5s2.6,2.5,5.8,2.5S124.9-153.2,124.9-154.5z"/>
				<path class="st1" d="M105.9-154.5c0-1.4-2.6-2.5-5.8-2.5c-3.2,0-5.8,1.1-5.8,2.5s2.6,2.5,5.8,2.5
					C103.3-152.1,105.9-153.2,105.9-154.5z"/>
				<path class="st1" d="M172.3-144.4c0-1.4-2.6-2.5-5.8-2.5s-5.8,1.1-5.8,2.5s2.6,2.5,5.8,2.5C169.8-141.9,172.3-143,172.3-144.4z"
					/>
				<path class="st1" d="M153.4-144.4c0-1.4-2.6-2.5-5.8-2.5s-5.8,1.1-5.8,2.5s2.6,2.5,5.8,2.5C150.8-141.9,153.4-143,153.4-144.4z"
					/>
				<path class="st1" d="M134.4-144.4c0-1.4-2.6-2.5-5.8-2.5s-5.8,1.1-5.8,2.5s2.6,2.5,5.8,2.5C131.8-141.9,134.4-143,134.4-144.4z"
					/>
				<path class="st1" d="M115.4-144.4c0-1.4-2.6-2.5-5.8-2.5c-3.2,0-5.8,1.1-5.8,2.5s2.6,2.5,5.8,2.5
					C112.8-141.9,115.4-143,115.4-144.4z"/>
				<path class="st1" d="M96.4-144.4c0-1.4-2.6-2.5-5.8-2.5s-5.8,1.1-5.8,2.5s2.6,2.5,5.8,2.5S96.4-143,96.4-144.4z"/>
			</g>
			<g>
				<path class="st1" d="M11.8-134.3c0-1.4-2.6-2.5-5.8-2.5s-5.8,1.1-5.8,2.5c0,1.4,2.6,2.5,5.8,2.5S11.8-132.9,11.8-134.3z"/>
				<path class="st1" d="M11.8-114c0-1.4-2.6-2.5-5.8-2.5s-5.8,1.1-5.8,2.5s2.6,2.5,5.8,2.5S11.8-112.6,11.8-114z"/>
				<path class="st1" d="M11.8-93.7c0-1.4-2.6-2.5-5.8-2.5s-5.8,1.1-5.8,2.5s2.6,2.5,5.8,2.5S11.8-92.3,11.8-93.7z"/>
				<path class="st1" d="M11.8-73.4c0-1.4-2.6-2.5-5.8-2.5s-5.8,1.1-5.8,2.5S2.8-71,6-71C9.2-71,11.8-72.1,11.8-73.4z"/>
			</g>
			<g>
				<path class="st1" d="M163.1-134.3c0-1.4-2.6-2.5-5.8-2.5s-5.8,1.1-5.8,2.5c0,1.4,2.6,2.5,5.8,2.5S163.1-132.9,163.1-134.3z"/>
				<path class="st1" d="M144.1-134.3c0-1.4-2.6-2.5-5.8-2.5s-5.8,1.1-5.8,2.5c0,1.4,2.6,2.5,5.8,2.5S144.1-132.9,144.1-134.3z"/>
				<path class="st1" d="M125.1-134.3c0-1.4-2.6-2.5-5.8-2.5c-3.2,0-5.8,1.1-5.8,2.5c0,1.4,2.6,2.5,5.8,2.5S125.1-132.9,125.1-134.3
					z"/>
				<path class="st1" d="M106.2-134.3c0-1.4-2.6-2.5-5.8-2.5c-3.2,0-5.8,1.1-5.8,2.5c0,1.4,2.6,2.5,5.8,2.5
					C103.6-131.8,106.2-132.9,106.2-134.3z"/>
				<path class="st1" d="M87.2-134.3c0-1.4-2.6-2.5-5.8-2.5s-5.8,1.1-5.8,2.5c0,1.4,2.6,2.5,5.8,2.5S87.2-132.9,87.2-134.3z"/>
				<path class="st1" d="M68.2-134.3c0-1.4-2.6-2.5-5.8-2.5s-5.8,1.1-5.8,2.5c0,1.4,2.6,2.5,5.8,2.5S68.2-132.9,68.2-134.3z"/>
				<path class="st1" d="M49.2-134.3c0-1.4-2.6-2.5-5.8-2.5s-5.8,1.1-5.8,2.5c0,1.4,2.6,2.5,5.8,2.5S49.2-132.9,49.2-134.3z"/>
				<path class="st1" d="M30.3-134.3c0-1.4-2.6-2.5-5.8-2.5s-5.8,1.1-5.8,2.5c0,1.4,2.6,2.5,5.8,2.5S30.3-132.9,30.3-134.3z"/>
				<path class="st1" d="M153.6-124.1c0-1.4-2.6-2.5-5.8-2.5s-5.8,1.1-5.8,2.5s2.6,2.5,5.8,2.5C151-121.7,153.6-122.8,153.6-124.1z"
					/>
				<path class="st1" d="M134.6-124.1c0-1.4-2.6-2.5-5.8-2.5s-5.8,1.1-5.8,2.5s2.6,2.5,5.8,2.5C132-121.7,134.6-122.8,134.6-124.1z"
					/>
				<path class="st1" d="M115.7-124.1c0-1.4-2.6-2.5-5.8-2.5c-3.2,0-5.8,1.1-5.8,2.5s2.6,2.5,5.8,2.5
					C113.1-121.7,115.7-122.8,115.7-124.1z"/>
				<path class="st1" d="M96.7-124.1c0-1.4-2.6-2.5-5.8-2.5c-3.2,0-5.8,1.1-5.8,2.5s2.6,2.5,5.8,2.5
					C94.1-121.7,96.7-122.8,96.7-124.1z"/>
				<path class="st1" d="M77.7-124.1c0-1.4-2.6-2.5-5.8-2.5c-3.2,0-5.8,1.1-5.8,2.5s2.6,2.5,5.8,2.5
					C75.1-121.7,77.7-122.8,77.7-124.1z"/>
				<path class="st1" d="M58.7-124.1c0-1.4-2.6-2.5-5.8-2.5c-3.2,0-5.8,1.1-5.8,2.5s2.6,2.5,5.8,2.5
					C56.2-121.7,58.7-122.8,58.7-124.1z"/>
				<path class="st1" d="M39.8-124.1c0-1.4-2.6-2.5-5.8-2.5s-5.8,1.1-5.8,2.5s2.6,2.5,5.8,2.5C37.2-121.7,39.8-122.8,39.8-124.1z"/>
				<path class="st1" d="M20.8-124.1c0-1.4-2.6-2.5-5.8-2.5s-5.8,1.1-5.8,2.5s2.6,2.5,5.8,2.5S20.8-122.8,20.8-124.1z"/>
				<path class="st1" d="M163.1-114c0-1.4-2.6-2.5-5.8-2.5s-5.8,1.1-5.8,2.5s2.6,2.5,5.8,2.5S163.1-112.6,163.1-114z"/>
				<path class="st1" d="M144.1-114c0-1.4-2.6-2.5-5.8-2.5s-5.8,1.1-5.8,2.5s2.6,2.5,5.8,2.5S144.1-112.6,144.1-114z"/>
				<path class="st1" d="M125.1-114c0-1.4-2.6-2.5-5.8-2.5c-3.2,0-5.8,1.1-5.8,2.5s2.6,2.5,5.8,2.5S125.1-112.6,125.1-114z"/>
				<path class="st1" d="M106.2-114c0-1.4-2.6-2.5-5.8-2.5c-3.2,0-5.8,1.1-5.8,2.5s2.6,2.5,5.8,2.5
					C103.6-111.5,106.2-112.6,106.2-114z"/>
				<path class="st1" d="M87.2-114c0-1.4-2.6-2.5-5.8-2.5s-5.8,1.1-5.8,2.5s2.6,2.5,5.8,2.5S87.2-112.6,87.2-114z"/>
				<path class="st1" d="M68.2-114c0-1.4-2.6-2.5-5.8-2.5s-5.8,1.1-5.8,2.5s2.6,2.5,5.8,2.5S68.2-112.6,68.2-114z"/>
				<path class="st1" d="M49.2-114c0-1.4-2.6-2.5-5.8-2.5s-5.8,1.1-5.8,2.5s2.6,2.5,5.8,2.5S49.2-112.6,49.2-114z"/>
				<path class="st1" d="M30.3-114c0-1.4-2.6-2.5-5.8-2.5s-5.8,1.1-5.8,2.5s2.6,2.5,5.8,2.5S30.3-112.6,30.3-114z"/>
				<path class="st1" d="M157.3-103.9c0-1.4-2.6-2.5-5.8-2.5s-5.8,1.1-5.8,2.5s2.6,2.5,5.8,2.5C154.7-101.4,157.3-102.5,157.3-103.9
					z"/>
				<path class="st1" d="M138.3-103.9c0-1.4-2.6-2.5-5.8-2.5s-5.8,1.1-5.8,2.5s2.6,2.5,5.8,2.5C135.8-101.4,138.3-102.5,138.3-103.9
					z"/>
				<path class="st1" d="M119.4-103.9c0-1.4-2.6-2.5-5.8-2.5s-5.8,1.1-5.8,2.5s2.6,2.5,5.8,2.5S119.4-102.5,119.4-103.9z"/>
				<path class="st1" d="M100.4-103.9c0-1.4-2.6-2.5-5.8-2.5s-5.8,1.1-5.8,2.5s2.6,2.5,5.8,2.5S100.4-102.5,100.4-103.9z"/>
				<path class="st1" d="M81.4-103.9c0-1.4-2.6-2.5-5.8-2.5s-5.8,1.1-5.8,2.5s2.6,2.5,5.8,2.5S81.4-102.5,81.4-103.9z"/>
				<path class="st1" d="M62.5-103.9c0-1.4-2.6-2.5-5.8-2.5c-3.2,0-5.8,1.1-5.8,2.5s2.6,2.5,5.8,2.5
					C59.9-101.4,62.5-102.5,62.5-103.9z"/>
				<path class="st1" d="M43.5-103.9c0-1.4-2.6-2.5-5.8-2.5c-3.2,0-5.8,1.1-5.8,2.5s2.6,2.5,5.8,2.5
					C40.9-101.4,43.5-102.5,43.5-103.9z"/>
				<path class="st1" d="M24.5-103.9c0-1.4-2.6-2.5-5.8-2.5s-5.8,1.1-5.8,2.5s2.6,2.5,5.8,2.5C21.9-101.4,24.5-102.5,24.5-103.9z"/>
				<path class="st1" d="M163.1-93.7c0-1.4-2.6-2.5-5.8-2.5s-5.8,1.1-5.8,2.5s2.6,2.5,5.8,2.5S163.1-92.3,163.1-93.7z"/>
				<path class="st1" d="M144.1-93.7c0-1.4-2.6-2.5-5.8-2.5s-5.8,1.1-5.8,2.5s2.6,2.5,5.8,2.5S144.1-92.3,144.1-93.7z"/>
				<path class="st1" d="M125.1-93.7c0-1.4-2.6-2.5-5.8-2.5c-3.2,0-5.8,1.1-5.8,2.5s2.6,2.5,5.8,2.5S125.1-92.3,125.1-93.7z"/>
				<path class="st1" d="M106.2-93.7c0-1.4-2.6-2.5-5.8-2.5c-3.2,0-5.8,1.1-5.8,2.5s2.6,2.5,5.8,2.5
					C103.6-91.2,106.2-92.3,106.2-93.7z"/>
				<path class="st1" d="M87.2-93.7c0-1.4-2.6-2.5-5.8-2.5s-5.8,1.1-5.8,2.5s2.6,2.5,5.8,2.5S87.2-92.3,87.2-93.7z"/>
				<path class="st1" d="M68.2-93.7c0-1.4-2.6-2.5-5.8-2.5s-5.8,1.1-5.8,2.5s2.6,2.5,5.8,2.5S68.2-92.3,68.2-93.7z"/>
				<path class="st1" d="M49.2-93.7c0-1.4-2.6-2.5-5.8-2.5s-5.8,1.1-5.8,2.5s2.6,2.5,5.8,2.5S49.2-92.3,49.2-93.7z"/>
				<path class="st1" d="M30.3-93.7c0-1.4-2.6-2.5-5.8-2.5s-5.8,1.1-5.8,2.5s2.6,2.5,5.8,2.5S30.3-92.3,30.3-93.7z"/>
				<path class="st1" d="M153.6-83.6c0-1.4-2.6-2.5-5.8-2.5s-5.8,1.1-5.8,2.5s2.6,2.5,5.8,2.5S153.6-82.2,153.6-83.6z"/>
				<path class="st1" d="M134.6-83.6c0-1.4-2.6-2.5-5.8-2.5s-5.8,1.1-5.8,2.5s2.6,2.5,5.8,2.5C132-81.1,134.6-82.2,134.6-83.6z"/>
				<path class="st1" d="M115.7-83.6c0-1.4-2.6-2.5-5.8-2.5c-3.2,0-5.8,1.1-5.8,2.5s2.6,2.5,5.8,2.5S115.7-82.2,115.7-83.6z"/>
				<path class="st1" d="M96.7-83.6c0-1.4-2.6-2.5-5.8-2.5c-3.2,0-5.8,1.1-5.8,2.5s2.6,2.5,5.8,2.5S96.7-82.2,96.7-83.6z"/>
				<path class="st1" d="M77.7-83.6c0-1.4-2.6-2.5-5.8-2.5c-3.2,0-5.8,1.1-5.8,2.5s2.6,2.5,5.8,2.5C75.1-81.1,77.7-82.2,77.7-83.6z"
					/>
				<path class="st1" d="M58.7-83.6c0-1.4-2.6-2.5-5.8-2.5c-3.2,0-5.8,1.1-5.8,2.5s2.6,2.5,5.8,2.5S58.7-82.2,58.7-83.6z"/>
				<path class="st1" d="M39.8-83.6c0-1.4-2.6-2.5-5.8-2.5s-5.8,1.1-5.8,2.5s2.6,2.5,5.8,2.5S39.8-82.2,39.8-83.6z"/>
				<path class="st1" d="M20.8-83.6c0-1.4-2.6-2.5-5.8-2.5s-5.8,1.1-5.8,2.5s2.6,2.5,5.8,2.5S20.8-82.2,20.8-83.6z"/>
				<path class="st1" d="M163.1-73.4c0-1.4-2.6-2.5-5.8-2.5s-5.8,1.1-5.8,2.5s2.6,2.5,5.8,2.5S163.1-72.1,163.1-73.4z"/>
				<path class="st1" d="M144.1-73.4c0-1.4-2.6-2.5-5.8-2.5s-5.8,1.1-5.8,2.5s2.6,2.5,5.8,2.5C141.5-71,144.1-72.1,144.1-73.4z"/>
				<path class="st1" d="M125.1-73.4c0-1.4-2.6-2.5-5.8-2.5c-3.2,0-5.8,1.1-5.8,2.5s2.6,2.5,5.8,2.5C122.6-71,125.1-72.1,125.1-73.4
					z"/>
				<path class="st1" d="M106.2-73.4c0-1.4-2.6-2.5-5.8-2.5c-3.2,0-5.8,1.1-5.8,2.5s2.6,2.5,5.8,2.5C103.6-71,106.2-72.1,106.2-73.4
					z"/>
				<path class="st1" d="M87.2-73.4c0-1.4-2.6-2.5-5.8-2.5s-5.8,1.1-5.8,2.5s2.6,2.5,5.8,2.5S87.2-72.1,87.2-73.4z"/>
				<path class="st1" d="M68.2-73.4c0-1.4-2.6-2.5-5.8-2.5s-5.8,1.1-5.8,2.5s2.6,2.5,5.8,2.5C65.6-71,68.2-72.1,68.2-73.4z"/>
				<path class="st1" d="M49.2-73.4c0-1.4-2.6-2.5-5.8-2.5s-5.8,1.1-5.8,2.5s2.6,2.5,5.8,2.5S49.2-72.1,49.2-73.4z"/>
				<path class="st1" d="M30.3-73.4c0-1.4-2.6-2.5-5.8-2.5s-5.8,1.1-5.8,2.5s2.6,2.5,5.8,2.5C27.7-71,30.3-72.1,30.3-73.4z"/>
				<path class="st1" d="M153.6-63.3c0-1.4-2.6-2.5-5.8-2.5s-5.8,1.1-5.8,2.5s2.6,2.5,5.8,2.5S153.6-61.9,153.6-63.3z"/>
				<path class="st1" d="M134.6-63.3c0-1.4-2.6-2.5-5.8-2.5s-5.8,1.1-5.8,2.5s2.6,2.5,5.8,2.5C132-60.8,134.6-61.9,134.6-63.3z"/>
				<path class="st1" d="M115.7-63.3c0-1.4-2.6-2.5-5.8-2.5c-3.2,0-5.8,1.1-5.8,2.5s2.6,2.5,5.8,2.5S115.7-61.9,115.7-63.3z"/>
				<path class="st1" d="M96.7-63.3c0-1.4-2.6-2.5-5.8-2.5c-3.2,0-5.8,1.1-5.8,2.5s2.6,2.5,5.8,2.5S96.7-61.9,96.7-63.3z"/>
				<path class="st1" d="M77.7-63.3c0-1.4-2.6-2.5-5.8-2.5c-3.2,0-5.8,1.1-5.8,2.5s2.6,2.5,5.8,2.5C75.1-60.8,77.7-61.9,77.7-63.3z"
					/>
				<path class="st1" d="M58.7-63.3c0-1.4-2.6-2.5-5.8-2.5c-3.2,0-5.8,1.1-5.8,2.5s2.6,2.5,5.8,2.5S58.7-61.9,58.7-63.3z"/>
				<path class="st1" d="M39.8-63.3c0-1.4-2.6-2.5-5.8-2.5s-5.8,1.1-5.8,2.5s2.6,2.5,5.8,2.5S39.8-61.9,39.8-63.3z"/>
				<path class="st1" d="M20.8-63.3c0-1.4-2.6-2.5-5.8-2.5s-5.8,1.1-5.8,2.5s2.6,2.5,5.8,2.5S20.8-61.9,20.8-63.3z"/>
			</g>
			<g>
				<path class="st1" d="M172.1-124.1c0-1.4-2.6-2.5-5.8-2.5s-5.8,1.1-5.8,2.5s2.6,2.5,5.8,2.5C169.5-121.7,172.1-122.8,172.1-124.1
					z"/>
				<path class="st1" d="M172.1-83.6c0-1.4-2.6-2.5-5.8-2.5s-5.8,1.1-5.8,2.5s2.6,2.5,5.8,2.5S172.1-82.2,172.1-83.6z"/>
				<path class="st1" d="M172.1-63.3c0-1.4-2.6-2.5-5.8-2.5s-5.8,1.1-5.8,2.5s2.6,2.5,5.8,2.5S172.1-61.9,172.1-63.3z"/>
			</g>
			<g>
				<path class="st1" d="M87.4-53.2c0-1.4-2.6-2.5-5.8-2.5s-5.8,1.1-5.8,2.5s2.6,2.5,5.8,2.5S87.4-51.8,87.4-53.2z"/>
				<path class="st1" d="M68.5-53.2c0-1.4-2.6-2.5-5.8-2.5s-5.8,1.1-5.8,2.5s2.6,2.5,5.8,2.5S68.5-51.8,68.5-53.2z"/>
				<path class="st1" d="M49.5-53.2c0-1.4-2.6-2.5-5.8-2.5c-3.2,0-5.8,1.1-5.8,2.5s2.6,2.5,5.8,2.5C46.9-50.7,49.5-51.8,49.5-53.2z"
					/>
				<path class="st1" d="M30.5-53.2c0-1.4-2.6-2.5-5.8-2.5S19-54.5,19-53.2s2.6,2.5,5.8,2.5S30.5-51.8,30.5-53.2z"/>
				<path class="st1" d="M11.5-53.2c0-1.4-2.6-2.5-5.8-2.5S0-54.5,0-53.2s2.6,2.5,5.8,2.5S11.5-51.8,11.5-53.2z"/>
				<path class="st1" d="M77.9-43c0-1.4-2.6-2.5-5.8-2.5c-3.2,0-5.8,1.1-5.8,2.5s2.6,2.5,5.8,2.5C75.4-40.6,77.9-41.7,77.9-43z"/>
				<path class="st1" d="M59-43c0-1.4-2.6-2.5-5.8-2.5s-5.8,1.1-5.8,2.5s2.6,2.5,5.8,2.5S59-41.7,59-43z"/>
				<path class="st1" d="M40-43c0-1.4-2.6-2.5-5.8-2.5s-5.8,1.1-5.8,2.5s2.6,2.5,5.8,2.5S40-41.7,40-43z"/>
				<path class="st1" d="M21-43c0-1.4-2.6-2.5-5.8-2.5S9.5-44.4,9.5-43s2.6,2.5,5.8,2.5S21-41.7,21-43z"/>
				<path class="st1" d="M87.4-32.9c0-1.4-2.6-2.5-5.8-2.5s-5.8,1.1-5.8,2.5s2.6,2.5,5.8,2.5S87.4-31.5,87.4-32.9z"/>
				<path class="st1" d="M68.5-32.9c0-1.4-2.6-2.5-5.8-2.5s-5.8,1.1-5.8,2.5s2.6,2.5,5.8,2.5C65.9-30.4,68.5-31.5,68.5-32.9z"/>
				<path class="st1" d="M49.5-32.9c0-1.4-2.6-2.5-5.8-2.5c-3.2,0-5.8,1.1-5.8,2.5s2.6,2.5,5.8,2.5C46.9-30.4,49.5-31.5,49.5-32.9z"
					/>
				<path class="st1" d="M30.5-32.9c0-1.4-2.6-2.5-5.8-2.5S19-34.3,19-32.9s2.6,2.5,5.8,2.5C27.9-30.4,30.5-31.5,30.5-32.9z"/>
				<path class="st1" d="M11.5-32.9c0-1.4-2.6-2.5-5.8-2.5S0-34.3,0-32.9s2.6,2.5,5.8,2.5C9-30.4,11.5-31.5,11.5-32.9z"/>
				<path class="st1" d="M81.7-22.8c0-1.4-2.6-2.5-5.8-2.5c-3.2,0-5.8,1.1-5.8,2.5s2.6,2.5,5.8,2.5S81.7-21.4,81.7-22.8z"/>
				<path class="st1" d="M62.7-22.8c0-1.4-2.6-2.5-5.8-2.5c-3.2,0-5.8,1.1-5.8,2.5s2.6,2.5,5.8,2.5S62.7-21.4,62.7-22.8z"/>
				<path class="st1" d="M43.7-22.8c0-1.4-2.6-2.5-5.8-2.5s-5.8,1.1-5.8,2.5s2.6,2.5,5.8,2.5C41.1-20.3,43.7-21.4,43.7-22.8z"/>
				<path class="st1" d="M24.7-22.8c0-1.4-2.6-2.5-5.8-2.5s-5.8,1.1-5.8,2.5s2.6,2.5,5.8,2.5S24.7-21.4,24.7-22.8z"/>
				<path class="st1" d="M87.4-12.6c0-1.4-2.6-2.5-5.8-2.5s-5.8,1.1-5.8,2.5s2.6,2.5,5.8,2.5S87.4-11.2,87.4-12.6z"/>
				<path class="st1" d="M68.5-12.6c0-1.4-2.6-2.5-5.8-2.5s-5.8,1.1-5.8,2.5s2.6,2.5,5.8,2.5S68.5-11.2,68.5-12.6z"/>
				<path class="st1" d="M49.5-12.6c0-1.4-2.6-2.5-5.8-2.5c-3.2,0-5.8,1.1-5.8,2.5s2.6,2.5,5.8,2.5C46.9-10.1,49.5-11.2,49.5-12.6z"
					/>
				<path class="st1" d="M30.5-12.6c0-1.4-2.6-2.5-5.8-2.5S19-14,19-12.6s2.6,2.5,5.8,2.5S30.5-11.2,30.5-12.6z"/>
				<path class="st1" d="M11.5-12.6c0-1.4-2.6-2.5-5.8-2.5S0-14,0-12.6s2.6,2.5,5.8,2.5S11.5-11.2,11.5-12.6z"/>
				<path class="st1" d="M77.9-2.5c0-1.4-2.6-2.5-5.8-2.5c-3.2,0-5.8,1.1-5.8,2.5S69,0,72.2,0C75.4,0,77.9-1.1,77.9-2.5z"/>
				<path class="st1" d="M59-2.5c0-1.4-2.6-2.5-5.8-2.5s-5.8,1.1-5.8,2.5S50,0,53.2,0S59-1.1,59-2.5z"/>
				<path class="st1" d="M40-2.5c0-1.4-2.6-2.5-5.8-2.5s-5.8,1.1-5.8,2.5S31,0,34.2,0S40-1.1,40-2.5z"/>
				<path class="st1" d="M21-2.5c0-1.4-2.6-2.5-5.8-2.5S9.5-3.8,9.5-2.5S12.1,0,15.3,0S21-1.1,21-2.5z"/>
			</g>
			<g>
				<path class="st1" d="M162.9-53.2c0-1.4-2.6-2.5-5.8-2.5s-5.8,1.1-5.8,2.5s2.6,2.5,5.8,2.5C160.3-50.7,162.9-51.8,162.9-53.2z"/>
				<path class="st1" d="M143.9-53.2c0-1.4-2.6-2.5-5.8-2.5s-5.8,1.1-5.8,2.5s2.6,2.5,5.8,2.5S143.9-51.8,143.9-53.2z"/>
				<path class="st1" d="M124.9-53.2c0-1.4-2.6-2.5-5.8-2.5c-3.2,0-5.8,1.1-5.8,2.5s2.6,2.5,5.8,2.5S124.9-51.8,124.9-53.2z"/>
				<path class="st1" d="M105.9-53.2c0-1.4-2.6-2.5-5.8-2.5c-3.2,0-5.8,1.1-5.8,2.5s2.6,2.5,5.8,2.5
					C103.3-50.7,105.9-51.8,105.9-53.2z"/>
				<path class="st1" d="M172.3-43c0-1.4-2.6-2.5-5.8-2.5s-5.8,1.1-5.8,2.5s2.6,2.5,5.8,2.5S172.3-41.7,172.3-43z"/>
				<path class="st1" d="M153.4-43c0-1.4-2.6-2.5-5.8-2.5s-5.8,1.1-5.8,2.5s2.6,2.5,5.8,2.5S153.4-41.7,153.4-43z"/>
				<path class="st1" d="M134.4-43c0-1.4-2.6-2.5-5.8-2.5s-5.8,1.1-5.8,2.5s2.6,2.5,5.8,2.5C131.8-40.6,134.4-41.7,134.4-43z"/>
				<path class="st1" d="M115.4-43c0-1.4-2.6-2.5-5.8-2.5c-3.2,0-5.8,1.1-5.8,2.5s2.6,2.5,5.8,2.5S115.4-41.7,115.4-43z"/>
				<path class="st1" d="M96.4-43c0-1.4-2.6-2.5-5.8-2.5s-5.8,1.1-5.8,2.5s2.6,2.5,5.8,2.5S96.4-41.7,96.4-43z"/>
				<path class="st1" d="M162.9-32.9c0-1.4-2.6-2.5-5.8-2.5s-5.8,1.1-5.8,2.5s2.6,2.5,5.8,2.5C160.3-30.4,162.9-31.5,162.9-32.9z"/>
				<path class="st1" d="M143.9-32.9c0-1.4-2.6-2.5-5.8-2.5s-5.8,1.1-5.8,2.5s2.6,2.5,5.8,2.5S143.9-31.5,143.9-32.9z"/>
				<path class="st1" d="M124.9-32.9c0-1.4-2.6-2.5-5.8-2.5c-3.2,0-5.8,1.1-5.8,2.5s2.6,2.5,5.8,2.5
					C122.3-30.4,124.9-31.5,124.9-32.9z"/>
				<path class="st1" d="M105.9-32.9c0-1.4-2.6-2.5-5.8-2.5c-3.2,0-5.8,1.1-5.8,2.5s2.6,2.5,5.8,2.5
					C103.3-30.4,105.9-31.5,105.9-32.9z"/>
				<path class="st1" d="M157.1-22.8c0-1.4-2.6-2.5-5.8-2.5s-5.8,1.1-5.8,2.5s2.6,2.5,5.8,2.5C154.5-20.3,157.1-21.4,157.1-22.8z"/>
				<path class="st1" d="M138.1-22.8c0-1.4-2.6-2.5-5.8-2.5s-5.8,1.1-5.8,2.5s2.6,2.5,5.8,2.5S138.1-21.4,138.1-22.8z"/>
				<path class="st1" d="M119.1-22.8c0-1.4-2.6-2.5-5.8-2.5c-3.2,0-5.8,1.1-5.8,2.5s2.6,2.5,5.8,2.5
					C116.6-20.3,119.1-21.4,119.1-22.8z"/>
				<path class="st1" d="M100.2-22.8c0-1.4-2.6-2.5-5.8-2.5s-5.8,1.1-5.8,2.5s2.6,2.5,5.8,2.5S100.2-21.4,100.2-22.8z"/>
				<path class="st1" d="M162.9-12.6c0-1.4-2.6-2.5-5.8-2.5s-5.8,1.1-5.8,2.5s2.6,2.5,5.8,2.5C160.3-10.1,162.9-11.2,162.9-12.6z"/>
				<path class="st1" d="M143.9-12.6c0-1.4-2.6-2.5-5.8-2.5s-5.8,1.1-5.8,2.5s2.6,2.5,5.8,2.5S143.9-11.2,143.9-12.6z"/>
				<path class="st1" d="M124.9-12.6c0-1.4-2.6-2.5-5.8-2.5c-3.2,0-5.8,1.1-5.8,2.5s2.6,2.5,5.8,2.5S124.9-11.2,124.9-12.6z"/>
				<path class="st1" d="M105.9-12.6c0-1.4-2.6-2.5-5.8-2.5c-3.2,0-5.8,1.1-5.8,2.5s2.6,2.5,5.8,2.5
					C103.3-10.1,105.9-11.2,105.9-12.6z"/>
				<path class="st1" d="M172.3-2.5c0-1.4-2.6-2.5-5.8-2.5s-5.8,1.1-5.8,2.5s2.6,2.5,5.8,2.5S172.3-1.1,172.3-2.5z"/>
				<path class="st1" d="M153.4-2.5c0-1.4-2.6-2.5-5.8-2.5s-5.8,1.1-5.8,2.5s2.6,2.5,5.8,2.5S153.4-1.1,153.4-2.5z"/>
				<path class="st1" d="M134.4-2.5c0-1.4-2.6-2.5-5.8-2.5s-5.8,1.1-5.8,2.5s2.6,2.5,5.8,2.5C131.8,0,134.4-1.1,134.4-2.5z"/>
				<path class="st1" d="M115.4-2.5c0-1.4-2.6-2.5-5.8-2.5c-3.2,0-5.8,1.1-5.8,2.5s2.6,2.5,5.8,2.5S115.4-1.1,115.4-2.5z"/>
				<path class="st1" d="M96.4-2.5c0-1.4-2.6-2.5-5.8-2.5s-5.8,1.1-5.8,2.5S87.5,0,90.7,0S96.4-1.1,96.4-2.5z"/>
			</g>
		</g>
	</g>
</pattern>
<g>
	<g class="st2">
		
			<pattern  id="SVGID_00000132775755464644702330000012535480271601010839_" xlink:href="#SVGID_1_" patternTransform="matrix(0.5526 0 0 -0.3985 -6387.4624 -7976.6318)"  class="st2">
		</pattern>
		<path style="fill:url(#SVGID_00000132775755464644702330000012535480271601010839_);" d="M382.7,499.9
			c51.7-7.4,92.3-42.1,108.2-86.5c11.3,2.6,23.3,3.3,35.6,1.5c50.9-7.3,86.6-52.7,79.6-101.4c-6.3-44.5-46.1-76.4-91.8-76.1
			c0.8-4.6,0.9-9.5,0.2-14.4c-3.7-26.2-29-44.2-56.3-40.4c-3.5,0.5-6.8,1.3-9.9,2.4c-11.9-30.4-44.6-49.8-79.7-44.7
			c-6.1,0.9-12,2.4-17.5,4.6c2.6-10,3.3-20.5,1.8-31.3c-6.5-45.5-50.3-76.8-97.8-70.1c-41.9,6-72.6,39.6-74.9,78.6
			c-51.5,24.6-82.7,91.7-72.2,164.8c9.7,68.3,52.8,121.4,104.3,135.6c0.1,4.2,0.5,8.4,1.1,12.6c6.9,48,41.7,82.8,77.8,77.6
			c12.4-1.8,23.4-8,32.1-17.5C341.9,501.1,362.1,502.8,382.7,499.9z"/>
	</g>
	<g>
		<path class="st4" d="M367,505.4c52.2-7.5,93.4-42.3,109.5-86.7c11.4,2.6,23.6,3.2,36,1.5c51.5-7.4,87.6-52.8,80.7-101.6
			c-6.3-44.5-46.5-76.4-92.7-75.9c0.8-4.6,0.9-9.5,0.2-14.4c-3.7-26.2-29.2-44.2-56.9-40.3c-3.5,0.5-6.8,1.3-10,2.4
			c-12-30.4-45-49.7-80.5-44.6c-6.2,0.9-12.1,2.5-17.7,4.6c2.6-10,3.3-20.5,1.8-31.3c-6.5-45.5-50.7-76.8-98.7-69.9
			c-42.4,6-73.5,39.7-75.9,78.7c-52.1,24.7-83.7,91.8-73.3,165c9.7,68.3,53.2,121.3,105.3,135.5c0.1,4.2,0.5,8.4,1.1,12.6
			c6.9,48,42,82.7,78.5,77.5c12.6-1.8,23.7-8.1,32.5-17.5C325.7,506.7,346.1,508.4,367,505.4z"/>
	</g>
</g>
<g>
	
		<pattern  id="SVGID_00000138558633497950191940000010847965608749901501_" xlink:href="#SVGID_2_" patternTransform="matrix(0.5526 0 0 -0.3985 -6387.4624 -7976.6318)">
	</pattern>
	<path style="opacity:0.5;fill:url(#SVGID_00000138558633497950191940000010847965608749901501_);enable-background:new    ;" d="
		M402.3,579.3c-21.4,5.8-34.6,22.7,0.8,23.2c35.4,0.5,71.6-4,97.8,5.6c26.2,9.6,75.7,21.8,94.5,20.5c36.9-2.6,33.3-24,6-36.4
		c-24.8-11.2-105.4-9.5-124.4-12.8C457.5,575.9,428.4,572.2,402.3,579.3z"/>
	<path class="st4" d="M376.8,591.4c-20.3,8.3-29.5,37.2,5.7,33.5c35.2-3.7,70.3-12.4,97.8-6c27.4,6.4,78.3,12.7,96.7,9.2
		c36.2-6.9,29.5-27.7,0.5-36.8c-26.3-8.2-100.8-7.2-120.1-8.2C437.5,582.1,401.6,581.2,376.8,591.4z"/>
</g>
<g>
	<g>
		<g>
			<path class="st6" d="M251.7,455.5c-26.3,0-52.1-8.8-71.3-25.6c-24-21-34.9-51.3-37.9-73.7c-2.6,1.5-5.4,2.9-8.3,4.1
				c-17.8,7.5-35.3,7.2-46.7-0.8c-13.4-9.4-16.1-27.1-17-34.1c-13.8,6.5-30.7,10.4-43.9,4.1c-13.9-6.6-18.8-22.1-19-22.8
				C3,291.9,16,270.3,46.3,242.6C91.4,201.3,174.8,146.3,294,79.2l0.5,0.8C175.3,147.1,92,202,46.9,243.3
				C16.9,270.7,4,292,8.5,306.5c0.2,0.6,5,15.8,18.5,22.2c13.1,6.2,29.8,2.3,43.4-4.2c-0.6-4.8-2.8-28.9,8.7-34.2
				c4.6-2.1,10.7-1.1,14.6,0.9c3.2,1.6,5.2,3.7,5.7,6c1,4.4-3.5,11.1-12,17.9c-4.2,3.4-9.8,7-16,10c0.8,6.7,3.3,24.4,16.6,33.8
				c11.2,7.8,28.3,8.1,45.8,0.7c3-1.3,5.9-2.7,8.5-4.3c-0.7-5.6-0.9-10.8-0.7-15.1c0.5-9.5,2.9-16.2,6.8-18.9
				c2.5-1.7,8.8-4.4,12.7-1.9c4.4,2.8,3.3,11,3,12.7c-1.2,7.9-9.4,16.9-20.9,23.7c2.9,22.3,13.7,52.5,37.6,73.5
				c31.5,27.5,81,33.3,120.5,14c41.5-20.3,67-66.1,63.5-114l0.9-0.1c1.8,23.9-3.4,47.4-14.9,68c-11.5,20.6-28.5,36.8-49.2,46.9
				C286.2,451.7,268.9,455.5,251.7,455.5z M157.3,319.3c-3.2,0-6.7,1.6-8.3,2.8c-3.6,2.5-5.9,9-6.4,18.2c-0.2,4.2,0,9.1,0.6,14.5
				c11-6.6,18.9-15.3,20-22.8c0.2-1.5,1.3-9.2-2.6-11.7C159.7,319.5,158.5,319.3,157.3,319.3z M85,290c-1.9,0-3.8,0.3-5.4,1.1
				c-10.7,5-8.8,27.6-8.2,33c6-3,11.4-6.5,15.6-9.8c8.1-6.5,12.6-13,11.7-17c-0.5-2-2.4-4-5.2-5.4C91,290.8,88,290,85,290z"/>
		</g>
		<g>
			<path class="st7" d="M251.7,455.5c-26.3,0-52.1-8.8-71.3-25.6c-24-21-34.9-51.3-37.9-73.7c-2.6,1.5-5.4,2.9-8.3,4.1
				c-17.8,7.5-35.3,7.2-46.7-0.8c-13.4-9.4-16.1-27.1-17-34.1c-13.8,6.5-30.7,10.4-43.9,4.1c-13.9-6.6-18.8-22.1-19-22.8
				C3,291.9,16,270.3,46.3,242.6C91.4,201.3,174.8,146.3,294,79.2l0.5,0.8C175.3,147.1,92,202,46.9,243.3
				C16.9,270.7,4,292,8.5,306.5c0.2,0.6,5,15.8,18.5,22.2c13.1,6.2,29.8,2.3,43.4-4.2c-0.6-4.8-2.8-28.9,8.7-34.2
				c4.6-2.1,10.7-1.1,14.6,0.9c3.2,1.6,5.2,3.7,5.7,6c1,4.4-3.5,11.1-12,17.9c-4.2,3.4-9.8,7-16,10c0.8,6.7,3.3,24.4,16.6,33.8
				c11.2,7.8,28.3,8.1,45.8,0.7c3-1.3,5.9-2.7,8.5-4.3c-0.7-5.6-0.9-10.8-0.7-15.1c0.5-9.5,2.9-16.2,6.8-18.9
				c2.5-1.7,8.8-4.4,12.7-1.9c4.4,2.8,3.3,11,3,12.7c-1.2,7.9-9.4,16.9-20.9,23.7c2.9,22.3,13.7,52.5,37.6,73.5
				c31.5,27.5,81,33.3,120.5,14c41.5-20.3,67-66.1,63.5-114l0.9-0.1c1.8,23.9-3.4,47.4-14.9,68c-11.5,20.6-28.5,36.8-49.2,46.9
				C286.2,451.7,268.9,455.5,251.7,455.5z M157.3,319.3c-3.2,0-6.7,1.6-8.3,2.8c-3.6,2.5-5.9,9-6.4,18.2c-0.2,4.2,0,9.1,0.6,14.5
				c11-6.6,18.9-15.3,20-22.8c0.2-1.5,1.3-9.2-2.6-11.7C159.7,319.5,158.5,319.3,157.3,319.3z M85,290c-1.9,0-3.8,0.3-5.4,1.1
				c-10.7,5-8.8,27.6-8.2,33c6-3,11.4-6.5,15.6-9.8c8.1-6.5,12.6-13,11.7-17c-0.5-2-2.4-4-5.2-5.4C91,290.8,88,290,85,290z"/>
		</g>
	</g>
	<g>
		<g>
			<g>
				<path class="st8" d="M254.6,96.6c10.8-4.8,9.2-23.6,9-25.8l0,0c0-0.1,0-0.1,0-0.1l0-0.1l-0.1-0.1c-0.1,0-1.6-0.9-4.6-1.8
					c-6.2-1.7-17-2.7-33.1,2.3c-20.4,6.3-35.8,14.9-36.5,20.4c-0.1,0.6,0,1.2,0.3,1.8c0.3,0.5,0.7,1,1.3,1.4c1.3,0.8,2.8,1,4.8,0.6
					c1.5-0.3,3.2-0.8,5.1-1.4c7.6-2.5,19.1-6.3,37.7,1.4C245,98,250.4,98.5,254.6,96.6z"/>
			</g>
			<g>
				<path class="st8" d="M290.3,120.3C290.3,120.3,290.2,120.3,290.3,120.3l-0.1-0.1c-1.7-1.4-16.5-13.1-26.5-6.7
					c-3.8,2.4-6.4,7.2-7.8,14.2c-3.8,19.8-13.3,27.3-19.6,32.3c-1.6,1.3-3,2.4-4,3.4c-1.5,1.5-2.1,2.9-2.1,4.4
					c0,0.7,0.1,1.4,0.4,1.9c0.3,0.5,0.7,0.9,1.3,1.2c5,2.4,20.7-5.7,37.2-19.2c13.1-10.7,18.2-20.2,20.2-26.3c1-3,1.1-4.8,1.1-4.9
					L290.3,120.3L290.3,120.3z"/>
			</g>
		</g>
		<g>
			<g>
				<g>
					<g>
						<path class="st9" d="M401.6,33.1c0,0.1,0,0.1,0,0.2c0,0.3,0,0.6,0,0.8c0,0.1,0,0.2,0,0.3c0,0.7-0.1,1.4-0.2,2.2
							c0,0.1,0,0.2,0,0.3c0,0.1,0,0.1,0,0.2c0,0.2-0.1,0.4-0.1,0.6c0,0.1,0,0.2-0.1,0.3c0,0.2-0.1,0.4-0.1,0.7c0,0,0,0,0,0
							c0,0.2-0.1,0.5-0.2,0.7c-0.2,1-0.5,2-0.9,3.1c-0.1,0.3-0.2,0.6-0.3,0.8c-0.2,0.4-0.3,0.9-0.5,1.3c-0.1,0.2-0.1,0.3-0.2,0.4
							c-0.1,0.3-0.2,0.6-0.4,0.9c-0.2,0.4-0.4,0.9-0.5,1.3c-0.2,0.6-0.5,1.1-0.8,1.7c-0.1,0.3-0.3,0.6-0.4,0.9
							c-0.1,0.2-0.2,0.4-0.3,0.6c-0.2,0.5-0.5,1.1-0.8,1.6c-1.4,3-3.2,6.3-5.3,10.1c-1.3,2.3-3,4.6-5,6.9c-0.6,0.7-1.2,1.3-1.8,2
							c-19.3,20.4-62.6,40.3-93.4,49.7c-2.6,0.8-5.1,1.5-7.5,2.1c-11.2,3-20.1,5.4-27.3,6.7c-7.9,1.4-13.8,1.5-18.5-0.6
							c-1.3-0.6-2.5-1.3-3.7-2.2c-1.7-1.4-3.3-3.1-4.8-5.3l0,0c0-0.1-0.1-0.2-0.1-0.3c0-0.1-0.1-0.2-0.2-0.3l0.1,0
							c0-0.1,0-0.1-0.1-0.1c-1-2.4-1.5-4.6-1.7-6.8c-0.1-1.7,0-3.4,0.4-5c1.1-4.8,4.2-9.4,9.4-14.8c5.1-5.4,12.1-11.5,20.9-19.3
							c1.8-1.6,3.7-3.2,5.7-4.8c0.7-0.6,1.4-1.2,2.1-1.7c2-1.7,4.2-3.3,6.4-5c24.9-19,59.9-39.6,84.7-43.9c0.9-0.2,1.8-0.3,2.7-0.4
							c3-0.4,5.9-0.5,8.5-0.3c0.4,0,0.8,0.1,1.2,0.1c0.4,0,0.8,0.1,1.1,0.1c0.3,0,0.5,0,0.8,0.1c1.3,0.1,2.6,0.2,3.8,0.3
							c0.4,0,0.9,0.1,1.3,0.1c0.4,0,0.8,0.1,1.2,0.1c0.6,0.1,1.2,0.1,1.7,0.2c0.3,0,0.5,0.1,0.8,0.1c1,0.1,2,0.3,3,0.4
							c0.3,0.1,0.7,0.1,1,0.2c0.4,0.1,0.7,0.1,1.1,0.2c0.2,0,0.4,0.1,0.6,0.1c0.6,0.1,1.1,0.2,1.6,0.3c0.2,0.1,0.5,0.1,0.7,0.2
							c1.2,0.3,2.3,0.6,3.3,0.9c0.3,0.1,0.6,0.2,0.9,0.3c0,0,0,0,0.1,0c0.3,0.1,0.6,0.2,0.9,0.3c0.4,0.1,0.8,0.3,1.1,0.4
							c0.2,0.1,0.4,0.2,0.5,0.2c0.4,0.2,0.8,0.3,1.1,0.5c0.1,0.1,0.2,0.1,0.3,0.2c0.1,0.1,0.2,0.1,0.3,0.2c1.4,0.8,2.6,1.6,3.5,2.5
							c0.1,0.1,0.1,0.1,0.2,0.2s0.1,0.1,0.2,0.2s0.1,0.1,0.2,0.2c0.1,0.1,0.1,0.1,0.2,0.2c0.2,0.2,0.4,0.4,0.5,0.6c0,0,0,0,0,0
							c0,0,0,0.1,0.1,0.1l0.1-0.1c0,0.1,0.1,0.2,0.1,0.3c0.1,0.1,0.1,0.2,0.2,0.3l-0.1,0.1c0.1,0.3,0.2,0.5,0.2,0.8
							c0.1,0.3,0.1,0.5,0.2,0.8C401.5,31.4,401.6,32.2,401.6,33.1z"/>
					</g>
				</g>
			</g>
			<path class="st4" d="M230.5,105.4c-0.6,1.2-1,2.4-1.3,3.7c-0.4,1.5-0.5,3.1-0.3,4.7c0.2,2,0.7,4.1,1.7,6.3c0,0.1,0,0.1,0.1,0.1
				l-0.1,0c0.1,0.1,0.1,0.2,0.2,0.2c0,0.1,0.1,0.2,0.1,0.3l0,0c1.5,2,3,3.6,4.7,4.9c1.1,0.8,2.3,1.5,3.6,2
				c4.6,1.8,10.3,1.7,17.9,0.4c7-1.3,15.5-3.6,26.3-6.5c2.3-0.6,4.7-1.3,7.2-2.1c29.7-9,71.3-27.9,89.8-47.1
				c0.6-0.6,1.2-1.3,1.8-1.9c1.9-2.2,3.5-4.4,4.8-6.5c0,0-16.4,9.3-47.9,21.2C313.6,94.8,265.1,105.5,230.5,105.4z"/>
		</g>
		<g>
			<g>
				<g>
					<g>
						
							<ellipse transform="matrix(0.9456 -0.3254 0.3254 0.9456 -1.5775 113.3452)" class="st10" cx="338.1" cy="61.4" rx="20.2" ry="20.2"/>
					</g>
				</g>
			</g>
		</g>
		<g>
			<g>
				<g>
					<g>
						<path class="st11" d="M385.5,69.2l-26.9-50.1c3-0.4,5.9-0.5,8.5-0.3c22.2,1.6,29.8,4.9,33.4,9.7l0.1-0.1
							c0,0.1,0.1,0.2,0.1,0.3c0.1,0.1,0.1,0.2,0.2,0.3l-0.1,0.1c1.9,5.7,0.6,13.8-10.4,33.2C389.2,64.5,387.5,66.9,385.5,69.2z"/>
					</g>
				</g>
			</g>
		</g>
		<g>
			<g>
				<g>
					<g>
						<path class="st12" d="M225.8,130.6l-7-13c-1.4-2.6-0.4-5.9,2.2-7.4l1.7-0.9c2.6-1.4,5.9-0.4,7.4,2.2l7,13
							c1.4,2.6,0.4,5.9-2.2,7.4l-1.7,0.9C230.5,134.2,227.3,133.2,225.8,130.6z"/>
					</g>
				</g>
			</g>
		</g>
		<g>
			<path class="st8" d="M281.9,92.6c-2.2-4-27.2,6.3-50.1,18.6c-13.2,7.1-25.4,14.6-33.5,20.6c-7.4,5.5-10.6,9.1-9.7,10.9
				c0.7,1.2,3.4,1.2,8.1-0.1l0,0c9.3-2.5,25.4-9.6,42-18.5C261.6,111.8,284,96.7,281.9,92.6z"/>
		</g>
		<g>
			<g>
				<path class="st13" d="M343.3,70.9c-5.1,2.8-11.5,1-14.5-4c-0.1-0.2-0.2-0.3-0.3-0.5c-0.7-1.3-1.1-2.7-1.2-4.1
					c-0.1-1.2,0-2.4,0.2-3.5c0.4-1.6,1.1-3.1,2.2-4.4c0.9-1.1,2-2,3.3-2.7c4.9-2.6,10.9-1.1,14,3.2c0.3,0.4,0.5,0.8,0.8,1.2
					c0.6,1.1,1,2.2,1.2,3.3c0.2,1.2,0.2,2.4,0,3.5c-0.2,1.6-0.9,3.1-1.8,4.4C346.1,68.9,344.9,70.1,343.3,70.9z"/>
			</g>
		</g>
		<g>
			<g>
				<g>
					<g>
						<path class="st14" d="M349,59.6l-21.5-0.7c0.4-1.6,1.1-3.2,2.2-4.5l17.5,0.5c0.3,0.4,0.5,0.8,0.8,1.2
							C348.4,57.3,348.8,58.4,349,59.6z"/>
					</g>
				</g>
			</g>
		</g>
		<g>
			<g>
				<g>
					<g>
						<path class="st14" d="M347.2,67.6l-18.5-0.6c-0.1-0.2-0.2-0.3-0.3-0.5c-0.7-1.3-1.1-2.7-1.3-4.1l21.8,0.7
							C348.8,64.8,348.2,66.3,347.2,67.6z"/>
					</g>
				</g>
			</g>
		</g>
	</g>
	<g>
		<g>
			<path class="st6" d="M347.5,502c-0.3,0-0.5-0.1-0.7-0.3l-8-8c-0.4-0.4-0.4-1,0-1.4s1-0.4,1.4,0l6.9,6.9l5-12.1
				c0.1-0.3,0.4-0.5,0.7-0.6s0.7,0,0.9,0.2l6.2,5.8l6.6-14c0.1-0.3,0.4-0.5,0.8-0.6s0.7,0.1,0.9,0.3l6,7c0.4,0.4,0.3,1-0.1,1.4
				s-1,0.3-1.4-0.1l-5-5.8l-6.5,13.8c-0.1,0.3-0.4,0.5-0.7,0.6c-0.3,0.1-0.6,0-0.9-0.2l-6.1-5.8l-5.1,12.2c-0.1,0.3-0.4,0.5-0.7,0.6
				C347.6,502,347.5,502,347.5,502z"/>
		</g>
		<g>
			<path class="st6" d="M605.6,329.3c0.3,0.1,0.5,0.2,0.6,0.5l6,9.6c0.3,0.5,0.2,1.1-0.3,1.4c-0.5,0.3-1.1,0.1-1.4-0.3l-5.2-8.3
				l-7.7,10.6c-0.2,0.3-0.5,0.4-0.8,0.4c-0.3,0-0.6-0.2-0.8-0.5l-4.7-7.1l-9.6,12.1c-0.2,0.3-0.5,0.4-0.9,0.4
				c-0.3,0-0.6-0.2-0.8-0.5l-4.2-8.2c-0.2-0.5-0.1-1.1,0.4-1.4c0.5-0.2,1.1-0.1,1.3,0.4l3.5,6.8l9.5-12c0.2-0.2,0.5-0.4,0.8-0.4
				s0.6,0.2,0.8,0.5l4.7,7l7.7-10.7c0.2-0.3,0.5-0.4,0.8-0.4C605.5,329.2,605.6,329.2,605.6,329.3z"/>
		</g>
		<g>
			<path class="st6" d="M148.2,254.1c-0.1-0.2-0.2-0.5-0.1-0.8l3-10.9c0.1-0.5,0.7-0.9,1.2-0.7c0.5,0.1,0.9,0.7,0.7,1.2l-2.6,9.5
				l13-1.6c0.3,0,0.6,0.1,0.9,0.3c0.2,0.2,0.3,0.6,0.2,0.9l-2,8.2l15.4-1.2c0.3,0,0.7,0.1,0.9,0.4c0.2,0.3,0.3,0.6,0.1,0.9l-3.1,8.7
				c-0.2,0.5-0.8,0.8-1.3,0.6c-0.5-0.2-0.8-0.8-0.6-1.3l2.6-7.2l-15.3,1.2c-0.3,0-0.6-0.1-0.8-0.4s-0.3-0.6-0.2-0.9l2-8.2l-13.1,1.6
				c-0.3,0-0.7-0.1-0.9-0.3C148.3,254.2,148.3,254.2,148.2,254.1z"/>
		</g>
		<g>
			<path class="st6" d="M374.5,138.9c-3.9,0-7-3.1-7-7s3.1-7,7-7s7,3.1,7,7S378.3,138.9,374.5,138.9z M374.5,126.9c-2.8,0-5,2.2-5,5
				s2.2,5,5,5s5-2.2,5-5S377.2,126.9,374.5,126.9z"/>
		</g>
		<g>
			<path class="st6" d="M309.5,256.2c-3.9,0-7-3.1-7-7s3.1-7,7-7s7,3.1,7,7S313.3,256.2,309.5,256.2z M309.5,244.2c-2.8,0-5,2.2-5,5
				s2.2,5,5,5s5-2.2,5-5S312.2,244.2,309.5,244.2z"/>
		</g>
		<g>
			<path class="st6" d="M117.2,429.5c-3.9,0-7-3.1-7-7s3.1-7,7-7s7,3.1,7,7S121,429.5,117.2,429.5z M117.2,417.5c-2.8,0-5,2.2-5,5
				s2.2,5,5,5s5-2.2,5-5S119.9,417.5,117.2,417.5z"/>
		</g>
		<path class="st6" d="M309.2,376.5l-5.4-3.5l5.4-3.4c0.5-0.3,0.6-0.9,0.3-1.4s-0.9-0.6-1.4-0.3l-6.2,3.9l-6.2-4
			c-0.5-0.3-1.1-0.2-1.4,0.3c-0.3,0.5-0.2,1.1,0.3,1.4l5.4,3.5l-5.4,3.4c-0.5,0.3-0.6,0.9-0.3,1.4c0.2,0.3,0.5,0.5,0.8,0.5
			c0.2,0,0.4,0,0.5-0.1l6.2-3.9l6.2,4c0.2,0.1,0.4,0.2,0.5,0.2c0.3,0,0.7-0.2,0.8-0.5C309.8,377.5,309.6,376.8,309.2,376.5z"/>
		<path class="st6" d="M137.1,128.4l-5.4-3.5l5.4-3.4c0.5-0.3,0.6-0.9,0.3-1.4s-0.9-0.6-1.4-0.3l-6.2,3.9l-6.2-4
			c-0.5-0.3-1.1-0.2-1.4,0.3c-0.3,0.5-0.2,1.1,0.3,1.4l5.4,3.5l-5.4,3.4c-0.5,0.3-0.6,0.9-0.3,1.4c0.2,0.3,0.5,0.5,0.9,0.5
			c0.2,0,0.4-0.1,0.5-0.1l6.2-3.9l6.1,4c0.2,0.1,0.4,0.2,0.5,0.2c0.3,0,0.6-0.2,0.8-0.5C137.7,129.3,137.6,128.7,137.1,128.4z"/>
	</g>
</g>
<g id="man_40_">
	<g>
		<path class="st9" d="M440.4,528.2c0.4,12.4,0.6,30.2-0.3,51.9c2.2,1.7,5.6,3.8,10.2,5.4c5.5,1.9,10.4,2,13.4,1.8
			c2.4-46.1,5.5-87.8,8.7-124.8c0.3-3,0.4-4.6,0.5-5c5.9-40.6,11.8-81.2,17.7-121.8c9.8,37.6,19.6,75.2,29.4,112.8
			c0.6,4.3,1.2,8.7,2,13.2c3.6,22.7,8.6,47.1,15.5,72.8c4.3,15.8,8.9,30.8,13.7,44.8c1.3,1.6,2.8,2.9,4.5,3.8v0c0,0,0,0,0,0
			c0,0,0,0,0,0c1.2,0.7,2.4,1.1,3.6,1.4c1.5,0.3,3.9,0.8,5.6,0.1c2.6-1,4.3-4.3,4.5-8.1c-0.4-4.2-1-11.2-1.8-19.7
			c-5.8-62.2-8.2-79.1-12.5-97.6c-1.2-5-3.2-13.2-6.3-23.3c-8.4-49-16.7-97.9-25.1-146.9c-6.2-5-12.5-10-18.7-15
			c-15.8,0.2-31.5,0.4-47.3,0.5c-6.2,2.6-10.3,5.5-11.7,6.4c-2.8,56.4-5.6,112.8-8.4,169.2c0.2,8.3,0.5,20.7,1.1,35.8
			C439.4,507.7,440,515.3,440.4,528.2z"/>
	</g>
	<g>
		<path class="st8" d="M427.8,567.5c10.8,4.6,42.1,1.8,42.1,1.8l20.6-208.9L534.4,573c25.1,0,41.2-11,41.2-11l-40-254.1l-5.6-35.7
			l-84.2,8.3c-1.1,3.7-2.6,18.5-4.2,39.5C435.7,399.2,427.8,567.5,427.8,567.5z"/>
	</g>
	<path class="st15" d="M473.9,479.1c-2.8,22.8-9.4,67.3-16.6,90.9c12.7,0.6,12.7-0.7,12.7-0.7l20.6-208.9
		C490.5,360.4,477.1,452.5,473.9,479.1z"/>
	<g>
		<path class="st6" d="M441.6,318.6c34.7-3.6,74.8-9,94-11.8l-5.6-34.8l-84.2,8.1C444.6,283.7,443.2,298.1,441.6,318.6z"/>
	</g>
	<g>
		<path class="st16" d="M463.3,154.6c0,0-22.6,2.3-29.5,14.4c-7,12.1-41.8,39.7-41.8,39.7c-18.5-11.4-37-22.8-55.5-34.2
			c-2.7,3.3-5.4,6.6-8.1,9.9c17.8,17.2,31.9,30.3,40.3,38.5c0,0,10.2,10,20.5,11.8c1.9,0.3,4,0.4,4,0.4c0.9,0,1.7,0,2.5-0.1
			c4.5-0.4,7.5-1.9,31.7-20.6c14-10.8,25.5-20,33.9-26.7C462,176.7,462.7,165.6,463.3,154.6z"/>
	</g>
	<path class="st9" d="M325.4,167.3c-2-1.8-4.6-3.8-7.5-5c-6.2-2.5-9.9-6.2-13.6-5c-3.7,1.2,0,2.5,2.5,6.2c0.6,0.9,1.2,1.9,1.9,2.9
		c-3,0.4-5.6,0.8-6.5,0.8c-2.2,0-14.5-8.7-16.8-8.7c-2.2,0-3.4,2.5,0,5c3.3,2.5,10,7.4,10,7.4l-11.2-7.4l-2.2-1.6
		c-0.8-0.6-1.8-0.4-2.4,0.4c-0.5,0.8-0.4,1.9,0.2,2.6l3.1,3.5l-2.2-0.8c-0.7-0.2-1.4,0.1-1.8,0.8c-0.3,0.7-0.1,1.6,0.5,2l6.8,5.4
		l7.8,3.7c-2.2-0.7-4.3-1.4-6.5-2.1c-4-3.3-6.3-4.7-6.9-4.1c-0.2,0.2-0.2,0.7,0.1,1.5c1.8,1.9,4.1,4.2,5.9,6.1l16.8,5.8
		c0.2,0.1,0.4,0.1,0.7,0.2c3.9,1,7,1.1,9.1,1.2c6.6,0.2,12.4,0.2,16.7,0.2c3.2-3.3,6.3-6.7,9.5-10
		C339.8,178.4,331.4,170.5,325.4,167.3z"/>
	<g>
		<path class="st6" d="M316.3,175.1c-0.2-0.1-0.4-0.2-0.6-0.2c-0.4-0.1-0.8-0.3-1.1-0.5c-1.1-0.5-2.1-1.2-3-2
			c-1.8-1.7-2.8-4-2.8-6.3l-0.1-0.4h-0.7L308,166c-0.2,0.7-0.1,1.4-0.1,2.1c0.1,0.6,0.2,1.3,0.5,2c0.4,1.2,1.1,2.3,2.3,3.5l0.3,0.3
			c0.4,0.3,0.8,0.7,1.2,0.9c0.5,0.3,1.1,0.6,1.8,0.9c0.4,0.2,0.9,0.3,1.3,0.4c0.2,0.1,0.4,0.1,0.6,0.2l0.5,0.1
			c0.5,0.1,0.9,0.1,1.4,0.1l0.3,0l0.2-0.7L316.3,175.1z"/>
		<path class="st6" d="M303.8,168.5c-0.7,0.6-1.4,1.4-2,2.4c-0.5,0.8-1,1.6-1.4,2.8c-0.4,1.1-0.7,2-0.9,3c-0.2,1.1-0.3,2.2-0.2,3.2
			l0.1,0.3l0.6,0.1l0.1-0.4c0.4-1.8,1-3.6,1.8-5.6c0.8-1.9,1.6-3.7,2.6-5.3l0.2-0.3l-0.6-0.4L303.8,168.5z"/>
	</g>
	<g>
		<path class="st17" d="M336.5,198.7c1.7,12.3,12.5,13.3,32.2,32.2c3.4,3.3,9,8.8,17.1,11.4c1.4,0.5,3,0.8,4.6,1.1
			c0.3,0,0.5,0.1,0.7,0.1c19,1.9,37.4-17.5,48.1-28.5c2.3-2.3,4.2-4.3,5.7-5.6l16.3-54.5c0,0-10-3.7-25.3,8.8
			C420.7,176.3,392,204,392,204c-10.7-8.1-19.9-14.8-27.8-20.6c-3.7-2.7-9.7-7.2-17-6.3c-1.5,0.2-2.8,0.6-3.6,0.9
			c-2.4,4.8-4.8,9.6-7.2,14.3C336.3,193.8,336.1,196,336.5,198.7z"/>
	</g>
	<g>
		<polygon class="st17" points="343.7,179 336.3,194.8 330.2,187 336.5,174.5 		"/>
	</g>
	<g>
		<path class="st15" d="M385.8,242.3c1.4,0.5,3,0.8,4.6,1.1c0.3,0,0.5,0.1,0.7,0.1c19,1.9,37.4-17.5,48.1-28.5l4.4-33.3
			C443.6,181.7,418.5,227.4,385.8,242.3z"/>
	</g>
	<g>
		<path class="st17" d="M436.8,200.5c0.5,25.8,0.9,51.6,1.3,77.3c0.2,8.9,0.3,17.7,0.5,26.5c13.5,0.9,28.2,1.3,43.9,0.9
			c23.9-0.6,45.5-3.1,64.5-6.3c-3.5-27.1-7.7-55.1-12.7-83.8c-0.5-3.1-1.1-6.2-1.7-9.3c-3.1-17.4-6.4-34.3-9.8-50.9
			c-9.8-1.1-20.6-1.8-32.2-1.9c-12.7-0.1-24.4,0.7-34.9,1.9c-3.4,2.4-12.5,9.4-17,22.3C435,187.4,436,196.3,436.8,200.5z"/>
	</g>
	<g>
		<path class="st14" d="M469,273c0,1,0.8,1.8,1.8,1.8s1.8-0.8,1.8-1.8c0-1-0.8-1.8-1.8-1.8C469.8,271.2,469,272,469,273z"/>
	</g>
	<g>
		<path class="st15" d="M438.1,277.8c0.2,8.9,0.3,17.7,0.5,26.5c13.5,0.9,28.2,1.3,43.9,0.9c23.9-0.6,45.5-3.1,64.5-6.3
			c-3.5-27.1-7.7-55.1-12.7-83.8l-7.6-9.1c0,0-3.9,26.6-14.7,40.1c-10.7,13.4-41.2,23.3-41.2,23.3L438.1,277.8z"/>
	</g>
	<g>
		<g>
			<g>
				<path class="st6" d="M506.9,81.3c1,2,1.8,4,2.5,6.1c0.7,2.1,1.3,4.2,1.7,6.3c0.8,4.3,1,8.7,0,12.9c-0.5,2.1-1.2,4.1-2.2,6
					c-1,1.9-2.3,3.6-3.7,5.3c-0.7,0.8-1.5,1.6-2.3,2.3c-0.8,0.8-1.6,1.4-2.5,2.1c-0.8,0.7-1.8,1.3-2.7,2l-2.8,1.8l0,0.1
					c4-2,7.7-4.6,10.7-7.8c1.5-1.6,2.9-3.4,3.9-5.4c1-2,1.8-4.1,2.4-6.2c1-4.4,0.8-8.9-0.2-13.2C511,89.2,509.3,85,506.9,81.3
					L506.9,81.3z"/>
			</g>
			<g>
				<path class="st6" d="M463.8,112.9c-0.8-3.6-0.5-9.4-2.8-12.8c-1.3-1.8-2.7-3.1-3.9-4c-0.7-0.4-1.4-1-2-2c-2-3.6,3.3-11.7,8-16.7
					c3.8-4,6.3-6.7,10.8-7.6c5.8-1.2,10.7,1.6,12.2,2.6c2.2-0.2,8.8-0.6,15.1,3.5c10.1,6.5,10.6,18.4,10.7,19.5
					c0.2,6-2.1,10.2-5.3,16.4c-4.2,7.9-6.7,12.7-11.9,15C483.1,131.7,465.9,122.4,463.8,112.9z"/>
			</g>
			<path class="st16" d="M501.9,151.9c-0.9-12.2-1.8-24.4-2.8-36.6c-1.3,0.5-2.6,1-3.9,1.5c0-9.2-0.6-19.4-0.6-19.4
				s-0.8-0.9-2.2-2.2c-4.1-0.4-8.7-1.3-13.4-2.8c-11-3.6-18.4,0.8-21.8,3.6c0.1,6.7,0.2,16.5-0.4,20.8c-1,6.9,5.2,25.7,9.4,26.7
				c1.4,0.4,5-0.4,9-1.9c-0.2,2.9-0.3,5.8-0.5,8.8c0,0.9-0.1,2.1-0.2,3.5c-0.2,3.9,2.2,7.5,5.9,8.7c0,0,0.1,0,0.1,0
				c0,0,2.5,0.8,5.2,0.9c3.5,0.1,7.6-0.8,12.1-3.5C500.6,158.2,502.2,155.1,501.9,151.9z"/>
			<g>
				<path class="st6" d="M469,91.3c9.4-0.3,14.1,2.4,16.7,5.1c5.3,5.5,3,12.5,8.7,15.8c3.8,2.2,9.6,2.1,12.2-0.9
					c1-1.1,1.6-2.7,1.6-4.9c0-4.8-1.1-16.4-10.6-21.8C488.7,79.6,476.4,82.1,469,91.3z"/>
			</g>
			<g>
				<path class="st13" d="M493,127.2c0,3-0.5,8.1-2.6,13.3c-4.6,11.4-13.7,13.8-15.1,14.1c0.3-8,0.8-15.9,1.2-23.9
					c1.3-1.1,2.5-2,3.5-2.7c0,0,1-0.6,2.2-1C486,125.8,492.6,127.1,493,127.2z"/>
			</g>
			<g>
				<path class="st6" d="M461.9,111.8c0,1.2-0.5,2.1-1.1,2.1c-0.6,0-1-0.9-1-2.1c0-1.2,0.5-2.1,1.1-2.1
					C461.4,109.7,461.9,110.6,461.9,111.8z"/>
			</g>
			<g>
				<path class="st6" d="M478.6,111.9c0,1.2-0.5,2.1-1.1,2.1c-0.6,0-1-0.9-1-2.1c0-1.2,0.5-2.1,1.1-2.1
					C478.1,109.8,478.6,110.7,478.6,111.9z"/>
			</g>
			<g>
				<path class="st6" d="M471.8,103.6c2.8-0.3,5,0,6.5,0.3c3.2,0.7,5.5,2,5.5,2.6c0,0.3-0.2,0.4-0.3,0.6c0,0-0.2,0.2-0.4,0.3
					c-0.7,0.3-4-0.8-4.7-1c-3.4-1.1-5.7,0.5-6.6-0.8C471.6,105.2,471.5,104.6,471.8,103.6z"/>
			</g>
			<g>
				<path class="st6" d="M465.8,103.1c-2.8-0.4-5-0.2-6.5,0.1c-3.2,0.6-5.6,1.9-5.5,2.4c0,0.3,0.2,0.4,0.3,0.6c0,0,0.2,0.2,0.4,0.3
					c0.6,0.3,4-0.7,4.7-0.9c3.5-1,5.7,0.6,6.6-0.7C465.9,104.7,466.1,104.2,465.8,103.1z"/>
			</g>
			<g>
				<path class="st11" d="M492.2,112.8c-0.4,0.7-0.8,1.8-1.1,3.1c-0.4,2.1-0.2,3.8,0,5.2c0.3,2.4,0.6,4.8,2,5.3c0.4,0.1,0.8,0.1,1,0
					c0.8-0.5,11.8-7.4,10.6-15.6c-0.1-0.5-0.7-4.4-3.1-5.3C499.1,104.6,495.1,107.3,492.2,112.8z"/>
			</g>
			<g>
				<path class="st6" d="M479.3,82.2c0,0-9.4,20.9-25.7,16.1s-7.3-35.2,13.9-26.7C488.8,80.1,479.3,82.2,479.3,82.2z"/>
			</g>
			<g>
				<path class="st6" d="M488.6,97.7l-1,21.6l3.3-0.1c1.8-6.4,3.7-12.7,5.5-19.1C493.8,99.3,491.2,98.5,488.6,97.7z"/>
			</g>
			<g>
				<path class="st6" d="M488.8,111.4c-0.1,3-0.9,8.1-4.5,10.6c-1.2,0.8-4.1,1.3-10,2.4c-3.5,0.6-4.8,0.7-5.9,0.6
					c-3.2-0.1-5.6-0.9-6.8-1.4c-2-0.7-3.6-1.6-4.8-2.2c-0.2,2.6-0.2,6.4,0.3,10.8c0.8,6.6,1.2,9.8,3.2,12c6.7,7.2,27.6,0.6,31-8
					c1.1-2.7,1.3-5.8,1.3-5.8c0.2-2.7-0.1-4.2-0.5-7.9c-0.2-1.8-0.4-4.5-0.5-7.9C490.7,113.5,489.7,112.5,488.8,111.4z"/>
			</g>
			<g>
				<path class="st6" d="M460.5,98.4c-1.8,0.6-3.7,0.9-5.5,0.7c-1.8-0.1-3.7-0.5-5.3-1.2c-1.6-0.8-3.2-1.7-4.4-3
					c-1.2-1.3-2.2-2.8-2.7-4.5c-0.6-1.7-0.8-3.5-0.6-5.2c0.2-1.8,0.8-3.5,1.6-5.1c0.8-1.6,2-3.1,3.4-4.2c1.4-1.2,3-2.2,4.8-2.9
					l0-0.1c-3.7,1-6.9,3.5-8.8,6.8c-1.9,3.3-2.5,7.4-1.3,11.1c1.2,3.7,4.2,6.6,7.8,7.9c3.5,1.4,7.7,1.4,11.2-0.1L460.5,98.4z"/>
			</g>
			<g>
				<path class="st6" d="M485.3,76.1c1.1-1.2,2.4-2.4,3.8-3.4c1.4-1,2.9-1.9,4.4-2.6c0.8-0.4,1.6-0.7,2.4-1c0.8-0.2,1.6-0.5,2.5-0.7
					c1.7-0.4,3.4-0.5,5.2-0.4c-1.7-0.1-3.5-0.1-5.2,0.2c-0.9,0.1-1.7,0.4-2.6,0.6c-0.8,0.3-1.7,0.5-2.5,0.9
					c-1.6,0.7-3.2,1.5-4.7,2.5c-1.5,1-2.8,2.1-4.1,3.4L485.3,76.1z"/>
			</g>
			<g>
				<path class="st6" d="M487.2,75.8c0.2-1.1,0.5-2.2,0.9-3.3c0.4-1.1,0.8-2.1,1.3-3.2c0.5-1,1.2-2,1.9-2.8c0.8-0.9,1.7-1.6,2.6-2.2
					c-1,0.5-2,1.2-2.8,2c-0.8,0.8-1.5,1.8-2.2,2.8c-0.6,1-1.2,2.1-1.6,3.1c-0.5,1.1-0.9,2.2-1.2,3.4L487.2,75.8z"/>
			</g>
			<g>
				<path class="st14" d="M474.6,125.8c0,0-4,2.9-9.9,2.9c0,0,1,3,4.9,3C473.5,131.7,474.6,125.8,474.6,125.8z"/>
			</g>
		</g>
		<g>
			<g>
				<path class="st6" d="M467.5,107.8c0,0,1.1,7.7-1.8,10.7c-2.9,2.9,3,3.8,3.9,1.9c-0.4,0.2-5.4,1.2-2.1-3
					C469.1,115.2,467.5,107.8,467.5,107.8z"/>
			</g>
		</g>
	</g>
	<g>
		<path class="st6" d="M482.9,161.5c0,0,8.1,7.2,6.3,11.6s-6.3,10.8-10.8,9.9s-4.5-10.8-2.7-14.3
			C477.5,165.1,482.9,161.5,482.9,161.5z"/>
	</g>
	<g>
		<path class="st17" d="M482.9,161.5c-0.9,0.1-2.2,0.4-3.1,1.3c-1.2,1.3-0.9,2.9-1.8,5.4c-0.4,1-1,2.4-2.2,4c-1.3-1.2-3-2.8-4.5-5.1
			c-2.8-4.4-3.4-8.6-3.6-11c2.4-2.1,4.8-4.2,7.2-6.3c0.1,1.3,0.5,2.9,1.4,4.8C478.1,158.7,481.5,160.7,482.9,161.5z"/>
	</g>
	<g>
		<path class="st17" d="M502,146.3c0,0-6.8,7.2-19.1,15.2l6.6,11.6c0,0,18.9-12,18.9-19L502,146.3z"/>
	</g>
	<g>
		<g>
			<path class="st15" d="M464.5,254.2c0.1,0.8,0.3,1.7,0.6,2.7c0.2,0.8,0.5,1.6,0.8,2.5c3,8.5,9.3,20.7,9.3,20.7s2.2-2.2,4.9-5.4
				c0.2-0.2,0.4-0.5,0.6-0.7l0,0c2.9-3.5,6.2-7.8,7.8-11.6c0.4-0.9,0.7-1.8,0.9-2.6c0.2-0.8,0.2-1.5,0.1-2.1
				c-0.2-1.8-0.8-7.9-1.4-15.9c0-0.4-0.1-0.8-0.1-1.2c-0.4-4.9-0.8-10.5-1.3-16.2c-0.1-1.2-0.2-2.5-0.3-3.7
				c-0.5-7.1-1.1-14.3-1.6-20.6c0-0.5-0.1-0.9-0.1-1.4c-0.9-11.4-1.5-19.8-1.5-19.8l-7.6-0.3c0,0-0.5,2.9-1.3,7.6
				c-0.1,0.4-0.1,0.8-0.2,1.2c-0.8,4.5-1.8,10.3-2.8,16.7c-0.2,1.2-0.4,2.4-0.6,3.7c-0.6,3.9-1.3,7.9-1.9,11.8
				c-0.1,0.4-0.1,0.8-0.2,1.2c-0.8,5.2-1.6,10.4-2.3,15c-0.2,1.3-0.4,2.6-0.5,3.9C464.9,247,464.3,252.4,464.5,254.2z"/>
		</g>
	</g>
	<g>
		<g>
			<path class="st14" d="M474.2,187.5c2.9,3.8,6.5,8.4,10.7,12.6c0-0.5-0.1-0.9-0.1-1.4c-4.1-4.2-7.7-8.7-10.4-12.5
				C474.4,186.7,474.3,187.1,474.2,187.5z"/>
		</g>
	</g>
	<g>
		<g>
			<path class="st14" d="M470.8,207.9c4.2,5.5,9.9,11.9,16.1,16.6c-0.1-1.2-0.2-2.5-0.3-3.7c-5.9-5-11.3-11.4-15.1-16.6
				C471.2,205.4,471,206.7,470.8,207.9z"/>
		</g>
	</g>
	<g>
		<g>
			<path class="st14" d="M468.7,221c4.5,6.2,11.7,15.1,19.6,20.9c0-0.4-0.1-0.8-0.1-1.2c-7.9-6-15-14.9-19.3-21
				C468.8,220.1,468.7,220.6,468.7,221z"/>
		</g>
	</g>
	<g>
		<g>
			<path class="st14" d="M465.8,239.8c5.3,7.2,13.7,17.2,22.8,22.6c0.4-0.9,0.7-1.8,0.9-2.6c-9.5-5.9-18.3-17.1-23.1-23.9
				C466.2,237.3,466,238.6,465.8,239.8z"/>
		</g>
	</g>
	<g>
		<g>
			<path class="st14" d="M465.1,256.9c0.2,0.8,0.5,1.6,0.8,2.5c3.8,5,8.8,10.7,14.3,15.3c0.2-0.2,0.4-0.5,0.6-0.7v0
				C474.6,268.9,469.1,262.2,465.1,256.9z"/>
		</g>
	</g>
	<g>
		<path class="st11" d="M461.1,245.2c13.1,25.1,26.2,50.1,39.2,75.2c-18.2,8.4-36.3,16.7-54.5,25.1c-12-24.7-24-49.4-36-74.1
			C427,262.7,444.1,253.9,461.1,245.2z"/>
	</g>
	<g>
		<path class="st9" d="M451.1,284.4l20-5.2l-20,7c0,0-1.8,3.5,3.5,3.5c0,0-2.6,4.4,2.6,5.2l17.4-3.5l-13.9,4.9
			c-0.7,0.3-1.2,1-0.9,1.8c0,0.1,0.1,0.2,0.2,0.3c1.5,2.2,8.8-0.3,23.4-5.2l4.9-2.8l19.2-11l-10.5-13c0,0-13.6-0.2-18-0.2
			c-2,0-4.9,0.4-7.6,0.9l4.3,5.9c0.2,0,0.5,0.1,0.7,0.2c0,0-0.2,0-0.5,0.1c-3.8,1-27.5,7.3-27.5,7.9
			C448.5,281.8,447.6,283.6,451.1,284.4z"/>
	</g>
	<g>
		<path class="st17" d="M518.5,154.6c5.1-2.5,12.2,1.8,15.8,3.9c7.9,4.7,11.7,10.4,22.6,29c12.6,21.6,15.9,28.2,18.8,34.7
			c8.7,19.2,8.2,24.2,7.5,27.2c-0.5,2.2-2.2,8.1-18.8,20.6c-12.1,9.1-38.6,29.1-51.8,20.6c-2.1-1.3-3.3-3-3.8-3.8
			c-2.8-5.6-5.7-11.2-8.5-16.9c-1-1.4-2.1-3.4-1.9-5.6c0.5-5.4,8.3-8.4,18.8-13.1c6.1-2.7,14.8-6.8,25.4-12.2
			c-9.1-15.3-18.2-30.6-27.3-45.9C510,173.2,511.5,158,518.5,154.6z"/>
	</g>
	<g>
		<polygon class="st17" points="498.6,264 507.5,282.8 502.8,282.6 494.1,267.3 		"/>
	</g>
	<g>
		<path class="st15" d="M429.2,273.1c0.8,0,1.5-0.2,2.2-0.6l10.8-5.8c1.8-1,2.8-3.1,2.4-5.1l-1.6-7l-0.9,0.2l1.6,7
			c0.4,1.6-0.4,3.3-1.9,4.1l-10.8,5.8c-1.5,0.8-3.2,0.5-4.4-0.6l-4.3-4.3l-0.7,0.7l4.3,4.3C426.8,272.6,428,273.1,429.2,273.1z"/>
	</g>
	<g>
		<rect x="496.8" y="206.7" class="st14" width="21.5" height="4.5"/>
	</g>
	<g>
		<path class="st18" d="M551,579.8c0,4.2-0.2,8.9-0.7,14c-0.7,6.2-1.7,11.8-2.9,16.7c3.7,1,10.2,2.2,18.2,0.8
			c9.6-1.6,16.2-6,19.4-8.5c-1.9-3.4-3.8-6.8-5.6-10.3c-3.1-5.8-6.2-11.5-9.1-17.2c-2.3-0.5-7.6-1.4-13.4,1
			C554.3,577.3,552.3,578.7,551,579.8z"/>
	</g>
	<path class="st6" d="M565.6,611.3c9.6-1.6,16.2-6,19.4-8.5c-1.1-1.9-2.1-3.9-3.2-5.8c-1.2,0.8-2.4,1.7-3.7,2.5
		c-4.7,3.1-19.6,4.3-29.1,3.1c-0.5,2.8-1,5.4-1.6,7.8C551.1,611.5,557.6,612.7,565.6,611.3z"/>
	<g>
		<path class="st6" d="M561,583.1c0.3-0.6,7.2-14,13.9-14.8c1.8-0.2,3.4,0.5,4.8,2c1.3,1.5,1.7,3,1.2,4.4c-2,5.8-18.7,8.9-19.4,9
			l-0.9,0.2L561,583.1z M575,569.2c-5.3,0.7-11.1,10.5-12.8,13.5c3.6-0.7,16.2-3.7,17.8-8.2c0.4-1.1,0-2.3-1-3.5
			c-1-1.2-2.2-1.7-3.4-1.7C575.4,569.1,575.2,569.1,575,569.2z"/>
	</g>
	<g>
		<path class="st6" d="M541.5,582.1c-1-1.2-1.1-2.9-0.3-4.9c0.9-2.2,2.3-3.5,4.3-3.9c6.8-1.4,17.5,8.8,18,9.2l0.6,0.6l-0.8,0.2
			c-0.4,0.1-6.6,1.3-12.4,1.3C546.9,584.7,543.1,584.1,541.5,582.1z M545.7,574.2c-1.7,0.3-2.9,1.4-3.7,3.3c-0.7,1.7-0.7,3,0.1,4
			c3.2,3.8,16.4,1.7,20,1.1C559.8,580.4,551.2,573.1,545.7,574.2z"/>
	</g>
	<g>
		<path class="st6" d="M588.6,599.5l0.5-0.8c-0.1-0.1-10.1-6.4-18.2-10c-7.7-3.4-7.8-7.6-7.8-7.7v-3l-0.9,2.8
			c0,0.1-3.7,11.6-8.1,15.1l0.6,0.7c3.7-2.9,6.7-10.7,7.9-14.1c0.7,1.7,2.6,4.5,8,6.9C578.6,593.2,588.5,599.5,588.6,599.5z"/>
	</g>
	<g>
		<path class="st18" d="M385.4,609.2h84.9c-2.2-9.2-4.3-18.4-6.5-27.5c-7.6-0.7-15.2-1.4-22.7-2c-10.2,5-18.7,8.4-24.6,10.7
			c-1.9,0.7-3.2,1.2-14.8,5.3c-4.9,1.8-9.9,3.6-14.8,5.3C386.4,603.7,385.9,606.5,385.4,609.2z"/>
	</g>
	<path class="st6" d="M468.8,602.8c-18.9,0.2-67,0.6-82.4,0.8c-0.3,1.9-0.7,3.8-1,5.6h84.9C469.8,607.1,469.3,605,468.8,602.8z"/>
	<g>
		<path class="st6" d="M436,580.9c-3-1.3-11.6-4.1-20.2,2.3l-0.5-0.7c6.7-5,13.5-4.6,17.8-3.5c-6.6-4.2-18.4-12.3-17.9-16.3
			c0.1-0.9,0.8-1.6,2.1-2c2.2-0.7,4.5,0,7.1,1.9c5.4,4,10.2,12.5,12.3,17.6c0.3,0.2,0.7,0.4,1,0.6l-0.4,0.7c0.4,1.1,0.7,2,0.7,2.4
			h-0.9C436.9,583.3,436.6,582.3,436,580.9z M417.5,561.5c-1.3,0.4-1.4,1-1.4,1.2c-0.4,3.5,12.1,12.1,19.2,16.5
			c-2.3-5-6.7-12.5-11.5-16c-1.7-1.3-3.4-1.9-4.8-1.9C418.4,561.3,418,561.4,417.5,561.5z"/>
	</g>
	<g>
		<path class="st6" d="M435.1,580.1l-1-0.1l0.8-0.7c0.5-0.4,12.3-10.3,18.7-8.8c1.6,0.4,2.7,1.4,3.3,3c0.6,1.5,0.5,2.9-0.3,4
			c-1.9,2.5-7.5,3.1-12.5,3.1C439.5,580.7,435.4,580.2,435.1,580.1z M436.3,579.3c3.8,0.4,16.7,1.4,19.5-2.3
			c0.6-0.8,0.7-1.8,0.2-3.1c-0.5-1.4-1.4-2.2-2.7-2.5c-0.4-0.1-0.8-0.2-1.3-0.2C446.8,571.3,438.9,577.3,436.3,579.3z"/>
	</g>
</g>
</svg>
