<?xml version="1.0" encoding="utf-8"?>
<!-- Generator: Adobe Illustrator 26.0.2, SVG Export Plug-In . SVG Version: 6.00 Build 0)  -->
<svg version="1.1" id="Layer_1" xmlns="http://www.w3.org/2000/svg" xmlns:xlink="http://www.w3.org/1999/xlink" x="0px" y="0px"
	 viewBox="0 0 126 36" style="enable-background:new 0 0 126 36;" xml:space="preserve">
<style type="text/css">
	.st0{fill-rule:evenodd;clip-rule:evenodd;fill:#FFFFFF;}
	.st1{fill:#FFFFFF;}
</style>
<g>
	<path class="st0" d="M22.4,5.1H3.2c-1.7,0-3,1.3-3,3v19.2c0,1.7,1.3,3,3,3l0,0h19.2c1.7,0,3-1.3,3-3l0,0V8.1
		C25.4,6.4,24.1,5.1,22.4,5.1z M11.1,23.2c0,0.6-0.5,1-1,1l0,0H5.9c-0.5,0-1-0.4-1-1V10.8c0-0.5,0.4-1,1-1h4.2c0.5,0,1,0.4,1,1V23.2
		z M20.8,17.5c0,0.6-0.4,1-1,1l0,0h-4.2c-0.5,0-1-0.4-1-1v-6.8c0-0.5,0.4-1,1-1h4.2c0.5,0,1,0.4,1,1V17.5z"/>
	<g>
		<path class="st1" d="M52.5,7v4.9h-5.8v18.5h-5.6V11.8h-5.8V7H52.5z M59.6,30.3h-5.1V12.1h5.1v3.5c1-2.5,2.5-3.9,5.3-3.7v5.4
			c-3.6-0.3-5.3,0.6-5.3,3.5L59.6,30.3z M93,30.4c-3.4,0-5.5-1.6-5.5-5.4V5.1h5.2v19.2c0,1.1,0.7,1.5,1.6,1.5c0.3,0,0.5,0,0.8,0v4.5
			C94.4,30.4,93.7,30.5,93,30.4z M103.8,30.4c-3.4,0-5.5-1.6-5.5-5.4V5.1h5.2v19.2c0,1.1,0.7,1.5,1.6,1.5c0.3,0,0.5,0,0.8,0v4.5
			C105.2,30.4,104.5,30.5,103.8,30.4z M108.4,21.2c0-5.6,3.2-9.5,8.8-9.5c5.6,0,8.7,3.8,8.7,9.5s-3.2,9.5-8.7,9.5
			S108.4,26.8,108.4,21.2L108.4,21.2z M113.4,21.2c0,2.7,1.1,4.9,3.8,4.9s3.7-2.2,3.7-4.9s-1.1-4.8-3.7-4.8S113.4,18.5,113.4,21.2z
			 M71.8,22.8c1.4,0.2,2.9,0.2,4.3,0.3c3.9,0,7.3-1.1,7.3-4.9c0-3.7-3.4-6.5-7.5-6.5c-5.5,0-9.1,4-9.1,9.6c0,5.8,3.1,9.3,10,9.3
			c2.1,0,4.1-0.3,6-1.1v-4.4C81,25.8,79,26.4,77,26.4C74.2,26.4,72.3,25.5,71.8,22.8z M75.8,15.7c1.5,0,2.6,1,2.6,2.3
			c0,1.7-1.8,2.3-4,2.3c-0.9,0-1.8-0.1-2.7-0.2c0.1-0.8,0.3-1.7,0.7-2.4C73.1,16.5,74.4,15.7,75.8,15.7L75.8,15.7z"/>
	</g>
</g>
</svg>
